<svg width="289" height="1050" viewBox="0 0 289 1050" fill="none" xmlns="http://www.w3.org/2000/svg">
<path d="M255.322 432.23L267.467 447.515C267.533 447.596 267.598 447.665 267.677 447.734C272.878 452.205 290.615 469.794 288.881 475.767C288.6 476.733 283.816 481.462 282.791 481.747C282.231 481.902 272.891 479.654 271.474 479.183C263.75 476.616 252.85 461.625 249.037 454.319C244.002 444.67 249.102 440.707 252.416 432.672C252.914 431.463 254.509 431.206 255.323 432.23H255.322Z" fill="#F9C7DB"/>
<path d="M181.241 192C181.455 188.15 180.289 178.803 175.946 180.835C173.978 181.76 172.374 184.543 169.954 184.003C166.918 183.256 166.339 178.997 164.222 177.228C163.073 176.55 162.403 176.994 161.637 177.818C159.663 180.857 157.725 185.311 155.76 188.355C152.849 192.608 154.047 204.348 161.15 201.281C163.301 200.113 164.998 197.241 166.138 194.963C167.08 193.442 168.429 189.426 170.582 191.242C172.125 192.83 172.37 197.541 174.234 199.208C176.339 201.409 180.124 200.175 180.887 197.296C181.296 196.028 181.293 194.371 181.254 192.594L181.238 192H181.241Z" fill="#F9C7DB"/>
<path d="M164.535 77.0754C178.971 69.3914 180.048 50.8619 171.813 38.2808C164.292 26.6964 149.079 26.597 137.279 30.8388C124.73 35.595 119.698 51.5782 124.823 63.5151C130.151 78.1731 151.066 85.9387 164.115 77.3494L164.535 77.0754Z" fill="#F9C7DB"/>
<path d="M166.328 206.069C166.279 208.345 167.854 212.873 168.712 215.609C169.506 217.729 169.793 219.647 171.489 220.987C173.358 221.774 174.204 219.83 175.009 218.134C176.102 215.317 178.416 212.354 178.77 209.311C178.608 205.88 174.018 204.199 173.066 200.646C172.738 199.078 169.479 193.517 168.755 195.65C168.596 198.956 166.918 202.629 166.356 205.661L166.328 206.069Z" fill="#F9C7DB"/>
<path d="M174.746 172.808C175.021 168.827 168.803 164.741 165.41 167.51C162.745 171.029 167.15 175.499 166.803 179.386C168.328 183.731 174.739 175.479 174.707 173.22L174.746 172.808Z" fill="#F9C7DB"/>
<path d="M108.88 1028.75C116.24 1040.6 93.1609 1047.9 87.1956 1039.1C85.9327 1037.24 85.7853 1029.26 86.2901 1028.79C86.5626 1028.53 92.4397 1026.75 93.3965 1026.64C95.9705 1026.33 104.237 1027.26 104.737 1026.67C105.226 1026.11 103.705 1021.5 106.734 1019.41C107.254 1019.06 117.599 1014.82 118.408 1014.64C123.587 1013.49 137.029 1013.88 142.856 1014.34C150.541 1014.95 153.466 1020.25 146.709 1024.4C134.966 1031.62 122.143 1027.95 108.882 1028.75L108.88 1028.75Z" fill="#F6F5F4"/>
<path d="M217.926 1036.96C216.751 1033.56 214.801 1031.14 215.87 1026.71C223.81 1024.68 228.49 1024.67 236.441 1026.71C237.742 1032.57 235 1037.77 228.974 1038.87C228.414 1038.97 220.59 1037.31 217.925 1036.96C218.548 1038.77 220.447 1040.08 219.922 1041.94C219.654 1042.89 213.687 1048.79 212.599 1049.1C207.683 1050.53 186.741 1049.99 185.047 1044.11C182.476 1035.2 202.636 1034.21 208.706 1034.87C211.264 1035.15 214.197 1036.48 217.926 1036.96Z" fill="#F6F5F4"/>
<path d="M180.892 1030.8C179.682 1041.96 161.786 1042.07 153.08 1041.11C150.602 1040.84 140.46 1038.21 139.746 1035.93C138.699 1032.6 142.477 1031.62 144.898 1030.81C156.289 1027.03 169.34 1028.53 180.892 1030.8Z" fill="#F6F5F4"/>
<path d="M211.601 1024.49C211.182 1024.91 201.708 1028.63 200.488 1028.8C198.222 1029.11 185.562 1029.28 185.006 1028.75C184.476 1028.23 184.844 1022.29 185.972 1020.47C190.499 1013.16 207.588 1008.2 212.844 1016.38C214.081 1018.31 212.17 1023.91 211.603 1024.48L211.601 1024.49Z" fill="#F6F5F4"/>
<path d="M80.08 1028.75C83.4152 1031.74 70.8083 1038.24 68.4956 1038.75C64.843 1039.54 52.4765 1040.16 51.2792 1035.93C48.4841 1026.07 67.3881 1025.99 72.9367 1026.64C73.8727 1026.74 79.8027 1028.5 80.08 1028.75V1028.75Z" fill="#F6F5F4"/>
<path d="M84.1971 1016.43C88.0933 1019.47 78.5027 1022.5 77.049 1022.64C69.7968 1023.38 62.2736 1022.65 55.3916 1020.53C59.0634 1014.1 70.768 1013.57 77.0474 1014.32C77.9914 1014.43 83.9022 1016.2 84.1971 1016.43Z" fill="#F6F5F4"/>
<path d="M238.502 1010.27C238.795 1010.55 238.76 1018.16 238.46 1018.44C237.949 1018.91 225.944 1022.67 225.157 1022.68C219.383 1022.78 218.772 1013.44 219.997 1012.34C220.272 1012.09 226.183 1010.32 227.129 1010.21C229.114 1009.97 238.094 1009.87 238.502 1010.26V1010.27Z" fill="#F6F5F4"/>
<path d="M176.776 1016.43C178.683 1024.21 160.165 1026.44 158.261 1024.64C157.183 1023.62 158.475 1017.34 161.449 1016.53C165.554 1015.4 172.2 1017.1 176.776 1016.43Z" fill="#F6F5F4"/>
<path d="M142.739 29.5826C143.611 32.6001 144.085 35.7057 143.988 38.8915C148.03 38.5037 152.041 38.5405 155.115 38.9988C155.146 38.9475 155.16 38.9251 155.184 38.8882C155.421 38.1335 155.66 37.3995 155.806 36.6191C155.822 36.5262 155.838 36.4348 155.856 36.3419C155.869 36.2634 155.875 36.2249 155.881 36.1784C155.885 36.0983 155.888 36.0342 155.888 36.0294C155.925 35.6144 155.95 35.1993 155.966 34.7827C155.987 34.2362 155.954 33.6898 155.942 33.1433C153.59 28.9945 153.323 16.9822 152.724 12.6267C152.362 9.9954 152.262 2.09353 150.666 0.30195C150.059 -0.379107 144.866 0.0102972 143.42 2.31307C140.409 7.10771 143.502 21.5926 142.741 29.5842L142.739 29.5826Z" fill="#F9C7DB"/>
<path d="M153.547 464.491C157.155 469.605 147.162 482.561 143.698 487.525C132.656 504.318 117.558 483.788 116.747 470.414C116.401 462.36 125.323 458.804 127.671 451.639C128.63 449.473 129.401 447.186 130.098 444.907C131.644 440.154 132.439 434.248 133.774 434.268C134.234 434.28 134.542 434.639 134.863 435.049C137.203 438.605 138.339 443.495 139.861 447.412C140.999 450.559 142.541 453.817 144.793 456.605C147.644 460.209 151.572 462.254 153.324 464.222L153.547 464.491Z" fill="#F9C7DB"/>
<path d="M150.602 399.095C152.17 398.959 153.173 401.438 153.896 402.946C156.789 410.385 159.18 417.58 164.767 422.817C168.74 426.347 171.249 431.164 169.846 436.55C167.612 446.7 165.041 460.57 154.896 458.66C144.47 455.599 138.981 430.967 141.693 419.057C142.687 415.753 144.385 412.902 145.754 409.622C147.658 405.688 147.958 400.706 150.392 399.158L150.602 399.094V399.095Z" fill="#F9C7DB"/>
<path d="M183.824 396.966C184.317 396.752 184.816 397.137 185.348 398.022C186.757 400.47 187.741 404.138 189.196 406.774C192.013 412.619 199.24 417.748 203.095 421.695C205.949 424.535 206.092 428.478 206.178 432.376C206.27 440.903 206.641 449.904 202.002 454.581C186.422 466.914 177.759 427.618 176.863 418.519C176.639 414.7 177.621 411.567 179.065 407.906C180.826 403.778 182.306 397.932 183.66 397.057L183.824 396.966Z" fill="#F9C7DB"/>
<path d="M177.749 445.824C180.082 447.45 180.99 450.782 182.712 453.094C185.972 457.918 190.2 461.801 195.132 463.126C202.012 464.717 204.602 466.722 202.876 474.076C197.606 509.399 172.353 486.607 164.974 466.845C163.291 461.411 168.019 457.654 170.668 453.506C172.436 451.231 174.157 445.308 177.494 445.704L177.75 445.826L177.749 445.824Z" fill="#F9C7DB"/>
<path d="M237.626 449.899C241.547 453.247 241.987 459.689 243.835 464.403C244.853 467.69 245.186 470.486 244.343 474.021C240.958 493.256 230.207 485.899 221.8 474.358C217.275 469.079 209.908 462.83 209.651 456.564C209.399 452.351 211.352 448.507 212.344 444.427C213.478 440.552 213.31 436.903 215.235 436.249C216.687 436.015 219.513 440.595 222.627 443.412C226.127 447.539 233.293 448.059 237.291 449.686L237.626 449.899Z" fill="#F9C7DB"/>
<path d="M97.9659 434.845C99.8651 438.656 99.0301 444.193 100.208 448.415C101.62 455.517 105.422 460.62 103.412 466.77C101.375 472.901 96.8664 477.786 92.6753 482.692C88.473 487.514 83.9822 490.804 79.5844 488.889C74.4269 486.756 71.4346 477.721 71.6333 470.972C71.534 463.745 78.3263 460.15 82.684 455.447C87.0082 450.811 89.4779 446.718 92.4093 440.549C93.5552 438.364 94.7909 435.533 96.8152 434.469C97.1886 434.424 97.2062 434.252 97.7992 434.666L97.9659 434.845Z" fill="#F9C7DB"/>
<path d="M62.4759 442.037C63.8782 443.712 64.2404 447.854 65.3912 451.663C66.8721 456.447 68.9877 459.924 65.9425 464.161C60.6376 471.927 46.1603 494.118 35.9943 488.495C27.2386 482.168 39.0266 466.494 42.3554 458.156C45.0912 452.662 50.9379 450.112 55.1755 445.428C56.9657 443.769 59.7112 439.516 62.2611 441.784L62.4727 442.037H62.4759Z" fill="#F9C7DB"/>
<path d="M117.755 398.659C118.276 398.557 118.658 399.308 118.976 400.671C119.489 402.874 119.8 405.869 120.289 408.252C121.701 416.168 127.128 421.551 127.19 428.741C126.846 435.57 121.93 458.168 113.96 458.562C104.783 456.469 104.156 437.412 104.119 429.583C103.921 421.415 108.647 414.973 112.49 408.031C114.343 405.074 115.468 400.579 117.595 398.711L117.755 398.659Z" fill="#F9C7DB"/>
<path d="M85.439 398.685C88.6236 398.948 88.4713 405.465 89.2599 408.029C90.0853 413.543 94.052 418.567 94.169 423.146C93.5439 428.985 89.5788 434.336 87.234 439.781C82.9596 447.64 81.6294 452.692 75.4397 455.948C71.9458 457.354 69.928 453.312 68.9792 450.503C65.567 441.907 68.742 431.751 70.5626 422.694C71.9073 416.018 75.1384 412.26 78.9304 407.283C81.1197 404.711 82.3394 400.459 85.197 398.752L85.4374 398.684L85.439 398.685Z" fill="#F9C7DB"/>
<path d="M217.266 398.932C218.479 399.411 219.635 401.5 220.428 402.875C229.805 421.528 243.531 406.074 242.827 426.507C242.669 439.473 238.561 453.336 225.659 441.1C215.966 431.719 212.321 419.21 213.317 406.225C213.65 403.795 214.153 398.917 217.011 398.852L217.266 398.932Z" fill="#F9C7DB"/>
<path d="M165.473 365.723C166.431 366.648 167.345 368.723 168.25 371.084C170.859 378.66 176.906 383.724 176.846 390.945C176.049 397.469 173.723 415.141 166.718 416.45C165.245 416.383 163.755 415.141 162.543 413.362C159.828 409.133 158.991 405.071 157.709 400.313C154.289 389.873 156.695 381.022 160.826 371.154C161.634 369.26 162.562 364.28 165.258 365.534L165.473 365.723Z" fill="#F9C7DB"/>
<path d="M129.787 420.586C123.991 413.064 125.145 401.868 124.635 394.184C124.11 390.001 122.672 387.028 123.991 383.091C124.639 381.043 125.631 379.088 126.618 377.127C128.19 374.646 129.578 369.964 132.508 369.464C135.869 370.909 136.72 376.002 138.446 379.059C140.408 383.796 144.294 388.046 144.277 392.358C144.246 399.89 138.731 412.625 133.187 418.985C131.949 420.386 130.884 421.078 130.019 420.708L129.785 420.588L129.787 420.586Z" fill="#F9C7DB"/>
<path d="M130.665 245.208C132.757 243.507 134.282 240.111 137.289 240.354C142.935 241.979 145.99 252.751 142.987 258.448C140.413 264.385 136.39 265.334 132.412 259.852C131.207 258.62 130.458 256.767 128.902 256.251C127.846 256.227 128.434 260.365 128.612 264.509C129.009 270.103 127.166 277.375 123.108 281.705C121.906 282.963 120.678 283.622 119.651 283.441C115.801 281.719 116.428 275.6 116.391 271.931C116.725 266.895 118.505 261.136 118.932 258.78C119.331 257.235 118.84 256.932 117.265 257.48C110.246 259.995 113.925 246.162 115.46 243.061C116.003 241.994 116.896 241.096 118.089 241.624C121.166 243.383 125.745 250.112 130.317 245.521L130.665 245.208Z" fill="#F9C7DB"/>
<path d="M194.73 365.626C198.68 364.116 200.172 372.355 201.961 374.792C204.147 378.768 207.091 381.288 207.692 385.104C208.144 387.496 208.122 390.251 208.139 392.765C208.175 399.949 207.599 405.843 204.713 412.357C204.104 413.615 203.434 414.436 202.642 414.603C193.537 412.768 190.006 389.658 189.303 381.809C189.191 378.763 190.17 376.258 191.348 373.398C192.474 370.597 193.151 367.049 194.494 365.824L194.73 365.626Z" fill="#F9C7DB"/>
<path d="M111.326 381.901C110.156 379.385 109.966 375.146 109.078 372.145C108.151 368.134 106.884 364.047 107.435 359.932C108.166 355.501 110.4 353.304 112.751 348.367C114.003 345.926 115.222 343.044 116.607 340.733C117.328 339.593 117.987 339.049 118.623 339.172C121.734 341.204 122.624 346.409 124.448 349.655C126.522 354.253 130.229 358.173 129.273 362.44C128.653 366.823 116.344 387.118 111.506 382.194L111.326 381.901Z" fill="#F9C7DB"/>
<path d="M102.117 370C104.332 371.42 104.407 375.428 105.738 377.724C107.64 382.282 110.639 384.86 110.837 388.826C110.329 397.246 106.654 406.366 103.075 413.845C102.051 415.827 101.051 417.142 99.9005 417.15C95.1741 415.727 95.3392 408.8 94.1484 404.669C90.7843 393.796 91.0648 380.683 98.6744 371.981C99.4518 371.041 100.825 369.734 101.854 369.932L102.117 370Z" fill="#F9C7DB"/>
<path d="M149.646 343.353C150.471 343.811 151.124 346.109 152.471 348.63C154.603 353.498 160.091 357.458 160.072 362.909C158.69 370.353 153.194 384.434 147.981 383.756C144.344 383.032 142.099 377.476 140.967 374.042C139.749 369.816 137.986 364.888 137.744 361.07C138.113 356.745 141.16 353.479 144.368 348.503C145.771 346.832 147.66 343.292 149.447 343.266L149.646 343.353Z" fill="#F9C7DB"/>
<path d="M132.489 314.501C135.754 315.391 136.549 321.459 138.39 324.148C140.543 328.502 144.856 330.655 145.844 334.877C147.037 339.79 144.203 344.274 141.575 348.303C139.586 351.061 136.921 355.491 133.774 355.673C127.91 354.27 126.873 344.401 124.961 339.398C123.642 334.883 122.7 332.9 124.453 329.723C126.524 325.858 129.439 321.841 130.724 317.649C131.266 316.067 131.715 314.908 132.294 314.585L132.489 314.501Z" fill="#F9C7DB"/>
<path d="M88.4811 342.3C91.6192 339.896 93.1786 335.571 94.9528 332.004C95.7798 330.124 97.6806 327.552 95.6708 326.246C88.9971 324.011 89.6334 331.794 87.2085 335.781C85.3878 339.036 80.7624 350.421 88.1333 342.622L88.4811 342.3Z" fill="#F9C7DB"/>
<path d="M94.081 343.133C87.8513 342.207 80.8074 353.187 79.8153 358.745C78.8665 364.913 80.8154 372.295 81.6215 378.636C81.8347 379.888 82.2963 381.692 83.407 382.056C89.0052 381.857 91.9815 375.008 94.5827 370.499C99.0895 363.164 99.8812 355.221 96.5284 346.957C96.086 345.676 95.275 343.878 94.3455 343.287L94.0826 343.132L94.081 343.133Z" fill="#F9C7DB"/>
<path d="M62.0734 414.678C57.7958 406.553 67.4057 376.475 75.1644 372.345C75.9994 372.69 76.2462 375.893 77.5332 378.547C79.3395 382.537 82.8606 385.641 81.8589 390.161C81.4646 395.267 69.4171 418.319 62.2914 414.923L62.0734 414.68V414.678Z" fill="#F9C7DB"/>
<path d="M33.2952 450.997C31.739 448.79 33.7472 445.846 34.9027 443.816C38.52 437.951 43.8683 431.18 48.3703 425.064C50.4522 422.291 53.0086 418.787 54.8324 416.425C56.7509 413.721 58.9161 415.216 60.2464 417.298C67.59 426.62 44.9533 456.855 33.542 451.255L33.2952 450.997Z" fill="#F9C7DB"/>
<path d="M114.041 326.357C111.337 322.4 111.762 314.359 107.387 311.958C106.031 311.699 104.7 313.236 103.881 314.405C100.287 319.439 99.9051 325.501 98.5829 331.334C97.7751 336.103 100.091 340.723 100.16 345.197C100.378 347.545 100.102 350.923 102.32 352.293C109.063 353.972 113.971 340.401 116.351 335.462C117.989 331.696 116.104 329.902 114.289 326.805L114.041 326.357Z" fill="#F9C7DB"/>
<path d="M100.74 316.333C107.837 305.505 108.984 304.861 103.572 292.48C103.194 291.676 102.912 291.477 102.663 291.868C101.314 295.892 100.469 300.648 98.9739 304.9C97.7526 309.507 95.3085 313.774 94.3661 318.296C94.3164 319.078 94.5087 319.734 94.9286 320.123C96.8326 321.708 99.5893 318.479 100.503 316.721L100.74 316.333Z" fill="#F9C7DB"/>
<path d="M142.459 218.264C144.591 217.426 146.167 216.984 146.126 214.447C145.804 210.527 147.583 207.463 150.654 205.193C152.393 203.789 154.688 202.38 156.828 203.667C162.83 207.856 159.168 221.559 151.515 222.487C149.034 222.963 149.893 224.673 150.433 226.584C151.153 228.98 151.904 231.735 151.592 234.287C151.178 238.457 147.365 244.936 144.418 244.183C140.855 242.67 139.411 237.774 138.147 234.417C136.736 229.826 138.967 220.71 142.147 218.449L142.461 218.263L142.459 218.264Z" fill="#F9C7DB"/>
<path d="M175.871 343.061C176.544 342.566 177.475 342.704 178.463 343.406C181.909 346.112 183.327 352.037 186.798 355.346C191.613 360.687 188.169 367.129 185.563 374.138C184.253 376.774 182.498 380.896 180.094 381.796C179.287 381.971 178.519 381.391 177.708 380.194C175.02 375.827 172.579 369.944 171.065 364.954C168.933 358.636 173.143 352.54 174.339 346.438C174.576 345.343 174.919 343.978 175.628 343.269L175.871 343.061Z" fill="#F9C7DB"/>
<path d="M208.341 377.319C205.9 374.156 204.859 369.568 202.293 365.881C200.66 362.89 199.354 360.323 199.365 357.849C199.585 353.557 201.327 348.522 202.606 344.454C203.117 343.125 203.656 342.438 204.544 342.46C207.717 343.04 211.19 346.672 213.724 348.989C220.476 354.303 218.341 363.637 215.179 371.739C214.064 374.239 211.854 378.675 208.631 377.513L208.341 377.318V377.319Z" fill="#F9C7DB"/>
<path d="M165.979 353.121C160.683 355.435 159.048 351.126 157.468 346.492C155.803 342.112 153.726 337.116 152.221 332.864C151.793 331.597 152.065 330.574 152.666 329.398C154.636 326.128 158.306 317.777 161.013 314.678C161.478 314.386 161.797 314.681 162.042 315.433C162.56 317.17 162.836 319.553 163.395 321.402C165.328 327.732 170.136 331.18 170.788 337.58C171.263 342.643 169.533 349.098 166.306 352.9L165.979 353.121Z" fill="#F9C7DB"/>
<path d="M195.125 321.638C195.986 317.997 193.268 313.893 192.436 309.43C189.184 295.206 201.213 297.603 205.689 306.491C208.287 313.694 200.61 321.469 199.304 328.669C198.565 332.788 199.418 337.223 198.648 341.385C197.77 346.84 194.847 353.899 191.611 352.989C188.535 351.817 187.195 348.289 185.706 345.441C181.151 337.185 182.974 328.118 185.293 319.606C187.368 308.451 190.471 320.884 194.239 322.037C194.529 322.083 194.842 322.093 195.025 321.806L195.124 321.639L195.125 321.638Z" fill="#F9C7DB"/>
<path d="M142.227 203.97C140.831 202.715 140.417 200.903 140.51 202.219C141.398 208.393 141.834 218.936 135.175 221.944C131.123 223.436 129.144 217.628 129.258 214.726C129.516 207.483 134.095 200.666 138.406 195.203C141.068 191.371 143.551 183.764 148.937 182.893C150.844 182.737 151.843 185.439 152.053 188.572C152.417 192.04 151.16 196.108 148.75 199.825C146.572 202.954 144.512 205.533 142.488 204.172L142.227 203.97Z" fill="#F9C7DB"/>
<path d="M147.464 293.531C147.902 294.395 148.152 295.826 148.485 296.921C149.921 302.824 156.108 307.479 156.005 313.04C155.242 318.139 150.889 326.11 145.175 326.197C141.648 324.503 140.8 319.171 138.861 315.894C136.127 310.031 138.103 304.964 140.806 299.642C141.898 297.701 144.953 291.296 147.31 293.278L147.464 293.531Z" fill="#F9C7DB"/>
<path d="M174.331 297.666C175.14 298.326 175.458 299.828 176.378 301.345C178.121 304.374 180.527 305.488 182.228 308.289C185.758 315.09 177.501 329.214 171.844 327.756C169.823 327.352 168.183 324.318 167.521 322.145C165.261 315.067 166.16 307.931 169.242 301.622C170.085 299.882 171.946 296.927 174.083 297.506L174.331 297.663V297.666Z" fill="#F9C7DB"/>
<path d="M233.916 408.946C232.416 410.67 230.057 407.848 228.68 406.378C221.192 397.18 215.302 385.174 219.607 373.292C222.158 369.236 224.747 376.261 225.864 378.298C230.111 387.264 235.2 398.413 234.055 408.678L233.916 408.946Z" fill="#F9C7DB"/>
<path d="M129.614 306.342C127.567 303.621 127.052 298.735 126.11 295.252C125.057 290.398 124.644 288.242 127.134 283.729C128.282 281.263 129.481 278.689 130.623 276.236C131.542 274.632 132.274 271.771 133.394 271.238C134.524 273.592 135.149 277.79 136.468 280.519C138.461 286.091 141.578 291.126 138.473 297.068C136.901 300.058 133.773 307.475 129.835 306.505L129.614 306.342Z" fill="#F9C7DB"/>
<path d="M154.376 234.275C154.552 233.881 154.991 234.36 155.852 235.472C157.527 237.64 159.753 240.51 161.546 242.83C164.377 246.833 167.835 249.288 166.449 253.33C165.885 255.626 164.857 257.835 163.684 259.884C162.484 261.809 161.089 264.49 159.113 264.985C154.456 264.829 150.404 255.365 149.92 251.24C149.705 246.168 154.497 240.209 154.315 234.451L154.376 234.275Z" fill="#F9C7DB"/>
<path d="M156.316 306.193C154.151 302.337 152.302 294.712 151.975 290.608C152.489 287.746 155.436 282.739 156.767 279.545C157.583 278.167 158.227 275.423 159.44 275.245C161.363 276.994 162.87 281.064 164.46 283.556C165.687 286.054 168.271 289.971 168.428 292.198C168.043 295.618 160.682 307.805 156.528 306.359L156.316 306.193Z" fill="#F9C7DB"/>
<path d="M156.833 161.866C158.685 158.749 158.688 154.096 161.076 151.79C165.184 147.917 167.262 153.771 166.216 157.352C165.514 161.23 161.616 163.558 160.722 166.132C159.851 168.329 159.976 170.874 159.621 173.247C158.983 178.099 155.946 184.024 152.915 181.937C150.879 180.718 149.543 177.144 147.073 177.026C143.994 177.678 143.27 184.33 139.542 183.38C135.655 180.865 136.814 169.611 139.354 166.677C141.247 165.393 143.217 168.108 145.073 168.611C148.99 170.193 154.269 166.212 156.582 162.313L156.833 161.866Z" fill="#F9C7DB"/>
<path d="M178.434 236.164C181.194 241.348 186.734 247.417 184.523 253.708C183.445 256.741 181.614 260.277 179.897 262.951C179.189 264.02 178.557 264.614 177.847 264.578C169.029 260.044 170.348 246.753 173.834 238.822C174.518 237.214 176.264 234.723 178.132 235.919L178.434 236.164Z" fill="#F9C7DB"/>
<path d="M122.746 299.903C123.934 301.659 125.201 305.525 126.952 307.581C128.38 309.662 129.78 311.745 129.058 314.282C128.516 317.848 120.691 330.539 116.691 324.501C114.136 317.155 114.6 312.096 117.492 304.97C118.462 302.949 119.4 297.741 122.488 299.648L122.746 299.903Z" fill="#F9C7DB"/>
<path d="M162.365 213.715C162.706 213.399 163.15 213.827 163.862 214.804C166.03 217.896 170.063 223.083 171.892 226.015C173.964 230.349 171.119 239.38 167.176 239.891C164.705 240.436 161.607 236.954 160.62 235.161C156.073 228.366 159.914 220.894 162.222 213.881L162.365 213.713V213.715Z" fill="#F9C7DB"/>
<path d="M141.919 285.705C140.475 282.524 139.436 274.902 140.028 272.063C140.901 269.964 144.893 265.159 146.709 262.478C147.733 261.35 148.729 259.012 149.838 258.924C150.25 259.134 150.546 260.557 151.227 262.084C152.158 264.217 153.586 266.09 153.941 268.411C155.059 275.098 147.275 289.573 142.111 285.937L141.919 285.705Z" fill="#F9C7DB"/>
<path d="M186.794 303.88C183.329 306.587 176.447 295.387 176.665 292.623C177.058 288.674 180.528 282.13 183.565 279.313C184.062 279.124 184.552 279.46 185.209 280.253C186.365 281.71 188.125 284.155 189.298 285.713C194.314 291.12 188.745 297.937 186.988 303.592L186.793 303.88H186.794Z" fill="#F9C7DB"/>
<path d="M168.581 285.596C167.02 283.514 166.301 277.607 165.142 274.826C164.321 272.499 164.084 271.488 165.345 269.291C166.313 267.6 167.371 265.594 168.389 263.994C169.304 262.615 170.041 262.712 171.142 263.674C173.029 265.427 175.502 267.637 177.153 269.8C180.999 274.186 179.01 279.888 174.619 283.029C173.082 284.28 170.517 286.312 168.814 285.742L168.581 285.596Z" fill="#F9C7DB"/>
<path d="M189.445 261.123C190.725 258.036 188.201 251.535 188.937 247.591C190.841 236.677 197.248 252.285 197.019 256.046C197.235 258.69 195.852 260.592 194.256 262.007C186.686 268.957 206.313 269.392 196.548 281.101C190.018 288.636 184.377 272.438 184.518 267.332C184.366 264.01 187.544 263.156 189.257 261.394L189.445 261.123Z" fill="#F9C7DB"/>
<path d="M131.407 223.693C133.336 227.227 134.5 232.022 132.689 236.102C131.722 238.762 129.448 243.412 126.166 242.366C121.899 240.536 118.923 225.857 124.986 222.165C126.576 221.511 129.708 222.913 131.169 223.487L131.407 223.693Z" fill="#F9C7DB"/>
<path d="M108.976 303.943C108.277 302.696 108.671 297.502 108.665 295.208C109.041 290.474 108.304 286.876 111.748 283.577C114.353 281.852 116.757 285.434 118.249 287.238C121.405 291.45 116.452 300.584 112.431 303.401C111.014 304.459 109.652 304.584 109.113 304.098L108.974 303.943H108.976Z" fill="#F9C7DB"/>
<path d="M186.71 239.895C180.929 238.452 176.607 223.022 178.536 219.812C180.625 217.428 184.814 222.102 186.539 223.609C191.222 227.551 189.097 234.986 186.939 239.747L186.71 239.895Z" fill="#F9C7DB"/>
<path d="M135.523 182.735C138.477 187.469 132.787 197.425 128.844 200.844C127.434 202.114 125.163 202.145 125.065 199.938C124.838 197.164 125.899 190.125 127.179 187.786C127.974 186.458 129.982 186.758 130.99 185.727C131.524 185.215 131.606 184.346 131.926 183.622C132.436 182.237 133.989 182.152 135.223 182.529L135.523 182.735Z" fill="#F9C7DB"/>
<path d="M144.111 155.972C145.65 155.586 148.993 154.335 150.155 152.463C151.014 151.508 153.011 149.204 154.093 150.095C155.886 154.593 150.498 164.413 147.754 166.126C144.27 167.522 142.747 157.995 143.901 156.142L144.111 155.972Z" fill="#F9C7DB"/>
<path d="M211.345 324.112C212.153 324.471 211.863 325.729 212.223 327.951L212.893 333.961C212.962 336.084 214.163 342.034 213.584 342.688C209.056 342.125 203.022 322.234 211.06 324.012L211.345 324.112Z" fill="#F9C7DB"/>
<path d="M152.268 107.297C150.128 107.848 151.046 104.587 150.093 103.77C149.336 102.957 147.14 103.563 146.666 102.831C145.841 100.618 146.645 96.6884 146.554 94.2767C146.668 93.1742 147.365 92.7752 148.426 92.9579C154.178 94.0604 152.986 102.005 152.463 107.076L152.269 107.297H152.268Z" fill="#F9C7DB"/>
<path d="M154.855 142.644C153.824 141.939 151.832 142.518 151.471 141.239C151.027 139.121 150.667 133.622 152.899 132.962C156.606 132.614 154.661 139.505 156.246 141.503C158.021 143.665 162.172 144.527 162.403 147.662C162.966 150.037 158.526 151.782 156.318 150.147C154.721 148.364 156.408 144.287 155.127 142.878L154.855 142.644Z" fill="#F9C7DB"/>
<path d="M152.497 121.009C151.467 120.304 149.474 120.883 149.114 119.604C148.67 117.485 148.309 111.987 150.542 111.327C154.249 110.979 152.303 117.87 153.888 119.868C155.664 122.03 159.815 122.892 160.046 126.027C160.608 128.401 156.169 130.147 153.96 128.512C152.364 126.728 154.05 122.652 152.77 121.243L152.497 121.009Z" fill="#F9C7DB"/>
<path d="M137.079 164.389C131.71 165.527 132.953 160.153 134.546 156.718C135.8 154.219 138.013 152.925 140.601 151.944C140.924 152.979 139.598 156.237 139.335 157.929C138.659 159.801 138.451 163.273 137.394 164.275L137.079 164.389Z" fill="#F9C7DB"/>
<path d="M149.338 126.139C150.625 129.397 147.985 135.425 143.647 133.642C142.483 132.19 143.3 129.071 144.289 127.658C145.153 126.331 147.616 125.312 149.054 125.878L149.338 126.139Z" fill="#F9C7DB"/>
<path d="M144.665 113.498C145.282 113.412 146.928 113.466 147.633 113.465C148.455 113.486 148.559 113.655 148.548 114.396C148.5 115.958 148.649 120.645 148.468 121.379C147.873 121.974 145.588 121.586 144.937 121.633C144.474 121.562 144.432 121.323 144.431 120.735C144.495 119.303 144.301 115.126 144.511 113.586L144.665 113.498Z" fill="#F9C7DB"/>
<path d="M145.296 140.125C145.488 140.431 145.435 140.912 145.493 141.832C145.326 143.748 146.065 145.687 144.737 146.849C139.859 150.375 140.222 135.433 145.073 139.869L145.296 140.125Z" fill="#F9C7DB"/>
<path d="M130.995 178.529C128.565 178.54 129.246 176.748 130.19 175.13C131.473 173.298 131.274 170.683 131.679 168.723C132.149 167.9 133.875 167.9 133.548 168.914L132.612 173.346C132.151 174.777 132.016 177.785 131.287 178.473L130.993 178.53L130.995 178.529Z" fill="#F9C7DB"/>
<path d="M6.0136 490.656C10.1197 490.038 25.3455 481.178 26.586 482.441C25.4385 487.801 28.1118 493.022 32.6939 495.857C44.3457 503.065 56.9318 481.304 65.6762 476.281C67.5962 487.327 73.6464 500.513 87.098 496.635C91.2763 495.43 106.347 476.713 109.914 472.175L116.086 486.549C123.425 495.659 129.65 499.679 141.869 495.86C147.386 488.4 156.574 481.397 158.263 472.175C160.159 469.912 169.182 486.426 170.559 487.625C171.628 488.554 177.787 493.217 178.778 493.797C195.534 503.611 209.04 488.99 207.64 472.177C210.191 469.481 221.442 483.606 224.109 485.514C239.107 496.243 249.589 489.629 250.849 472.178C255.915 474.944 261.874 477.373 266.241 481.194C272.42 486.601 263.824 490.685 264.861 498.679C265.571 504.148 268.256 509.718 267.304 515.306C266.251 521.487 265.829 525.267 265.246 531.736C263.93 546.324 264.606 551.367 265.246 564.597C265.574 571.387 265.07 578.33 265.246 585.134C265.895 610.22 264.682 643.215 267.304 667.286C264.199 667.81 251.701 666.509 250.874 667.326C250.613 667.584 248.732 674.008 248.832 674.361C250.273 679.38 264.853 681.727 269.362 677.556C269.894 680.687 273.174 688.136 273.476 689.879C274.506 695.841 276.107 706.77 275.534 712.471C271.678 750.699 274.202 789.157 275.486 827.448C275.845 838.146 272.69 935.767 275.534 936.334C270.025 935.236 256.324 937.425 257.014 944.548C253.31 945.441 255.832 941.635 254.896 940.51C254.437 939.959 241.069 939.944 240.556 940.443C240.301 940.691 240.274 946.255 240.623 947.564C241.635 951.352 250.374 951.508 253.711 950.5C255.573 949.937 256.844 946.958 257.995 946.992C259.519 947.035 262.02 949.245 266.312 948.718C270.264 948.232 279.074 945.946 281.706 942.497C282.59 942.917 285.145 941.967 285.753 942.545C286.427 943.186 285.421 949.394 285.778 951.784C286.116 954.038 287.745 955.751 287.916 957.862C288.484 964.839 287.431 972.412 287.879 979.466C279.821 978.702 272.059 982.13 264.257 983.615C259.474 984.526 243.976 984.336 242.741 988.836C241.668 992.742 244.361 994.693 240.554 997.951C241.95 993.618 238.729 989.897 238.458 986.695C234.559 940.656 237.065 893.241 234.423 846.958C234.298 844.776 232.389 843.051 232.286 840.875C231.863 831.893 234.171 812.922 232.22 806.026C231.238 802.549 226.05 802.398 223.008 802.786C218.28 803.388 188.292 819.513 185.973 823.318C183.668 827.102 185.516 835.803 185.043 840.875C182.716 865.879 181.512 893.637 180.849 918.84C180.365 937.241 181.136 955.746 181.067 974.153C181.878 976.935 208.957 995.695 213.845 999.012C215.546 1000.17 215.698 1001.98 215.863 1002.06C214.6 1004.39 209.189 1005.59 206.615 1006.18C186.896 1010.69 158.585 1011.27 138.787 1010.2C120.587 1009.21 102.683 1011.67 85.2581 1012.37C64.9822 1013.18 49.415 1012.76 30.6232 1005.21C23.488 1002.35 15.9376 997.501 9.00907 993.93C7.60349 991.871 7.33904 960.666 7.98333 955.913C8.29105 953.641 11.6119 955.341 12.1808 954.823C12.6392 958.283 27.9964 963.703 28.6407 963.039C29.2177 958.706 31.7387 955.437 30.6841 950.732C26.0956 949.394 23.2187 948.67 18.3529 948.662C20.2104 942.088 25.7109 936.395 26.6277 929.195C27.7448 920.42 27.8089 894.579 26.6453 885.884C26.2334 882.808 24.5377 883.122 24.5265 882.941C24.1018 876.003 24.1018 867.286 24.5265 860.349C25.4289 845.604 24.5265 829.905 24.5265 816.192V742.257C24.5265 737.449 25.5378 724.123 24.3422 719.839C23.6434 717.336 20.5165 716.816 20.4108 716.583C19.3578 714.263 21.967 694.714 22.4686 689.884C24.7862 667.544 28.0204 639.768 24.7846 618.687C23.1466 608.021 26.844 597.605 24.5265 585.141C24.1867 583.311 24.1851 578.755 24.5265 576.926C26.227 567.794 25.8039 562.515 26.5427 553.267C26.9626 548.022 32.8927 541.76 24.5265 537.904C24.8775 529.749 24.0345 521.395 24.5265 513.26C24.5954 512.114 26.4498 510.426 26.6261 508.184C28.6054 482.979 24.706 488.661 6.00879 492.722V490.668L6.0136 490.656ZM217.926 509.141C221.506 508.603 232.289 506.726 233.382 505.06C240.691 493.924 220.884 492.195 213.748 495.727C207.321 498.908 208.324 504.157 214.882 507.095C217.068 508.074 216.323 505.81 217.926 509.141C212.978 509.885 194.478 508.337 197.353 518.381C198.762 523.302 217.801 523.375 219.878 516.183C220.721 513.266 219.04 511.455 217.926 509.141ZM55.3948 515.301C60.6372 502.26 34.7294 499.294 32.835 506.133C28.1198 523.155 46.1086 515.187 55.3948 515.301ZM104.77 583.077H153.119C157.808 583.077 157.814 563.232 158.22 559.416C158.459 557.16 160.244 555.48 160.432 553.296C160.666 550.554 155.39 531.993 153.854 528.945C146.293 513.947 117.176 516.852 107.869 529.69C96.7095 545.082 99.7033 565.834 104.77 583.077ZM86.2165 525.612C85.7517 525.131 74.9142 525.217 72.8146 525.507C65.7883 526.475 64.8379 533.8 65.6778 539.935C70.5901 538.592 74.8228 542.465 79.0636 542.119C83.9375 541.721 88.9668 538.167 88.3914 532.709C88.2984 531.821 86.4745 525.878 86.2165 525.612ZM261.13 550.216C239.189 549.423 239.048 566.723 261.133 564.595L261.13 550.216ZM263.148 568.741C262.877 568.488 256.987 566.701 256.043 566.59C252.834 566.217 242.59 566.93 240.697 568.842C240.187 569.358 238.138 576.293 238.574 577.845C239.11 579.753 245.747 583.219 247.749 583.199C249.589 583.179 251.605 581.492 253.911 581.005C256.782 580.397 261.898 582.123 263.084 577.84C263.502 576.325 263.481 569.053 263.148 568.742V568.741ZM63.6247 587.184C63.1583 586.735 58.4431 587.528 56.3964 587.214C52.1396 586.561 50.0273 582.756 46.0926 589.198C40.5889 598.212 52.5419 594.741 55.321 597.514C55.9974 598.188 53.7856 606.278 58.5793 607.619C60.3295 608.108 73.3435 608.236 73.8708 607.685C74.3164 607.218 76.6996 598.183 75.9624 597.456C73.4285 597.012 64.2545 598.092 63.6167 597.456C62.9259 596.767 64.3074 587.846 63.6215 587.184H63.6247ZM51.2405 603.656C50.3847 602.776 34.1765 604.207 30.7002 603.616C29.9068 608.329 30.8476 616.481 36.0388 617.918C37.1222 618.218 49.2804 613.904 53.3353 615.937C54.2152 615.077 52.0803 604.52 51.2405 603.656ZM230.271 605.669H211.751V617.993C223.846 618.022 232.575 621.163 230.271 605.669ZM217.785 634.281C218.046 634.02 220.061 627.994 220.072 627.261C220.238 616.766 199.652 625.977 193.234 624.153C193.246 628.025 192.114 635.161 196.427 636.371C199.887 637.342 215.567 636.507 217.785 634.281ZM96.5412 628.259C88.0131 627.65 80.1278 628.555 71.8722 630.347C71.8402 634.034 70.6958 641.313 75.0408 642.532C77.2125 643.141 91.1769 643.141 93.3486 642.532C98.0589 641.21 96.3168 632.505 96.5412 628.259ZM164.434 724.788C162.685 715.136 167.42 706.129 166.565 696.985C166.234 693.44 164.655 691.328 164.395 688.886C163.906 684.291 165.164 679.303 164.166 674.739C163.544 671.895 154.34 655.785 152.155 653.868C142.438 645.343 122.622 648.679 113.023 656.009C107.459 660.257 102.833 668.037 100.933 674.747C100.348 676.811 98.7673 684.654 98.5606 686.756C98.0654 691.81 97.9436 718.415 99.5431 720.766C99.9774 721.403 105.428 724.789 105.8 724.789H164.435L164.434 724.788ZM261.133 665.228C261.124 661.357 262.254 654.221 257.941 653.011C254.517 652.049 241.684 652.051 240.593 656.022C237.121 668.669 252.987 664.866 261.133 665.228ZM259.075 696.038C259.646 685.559 260.273 679.742 248.009 681.913C247.579 681.99 242.946 683.652 242.747 683.849C242.492 684.102 240.522 690.349 240.631 690.722C242.611 697.427 253.424 696.184 259.075 696.038ZM216.98 710.494C215.573 710.893 213.251 713.687 213.813 715.543C215.781 722.033 232.905 722.775 234.384 717.598C236.812 709.1 222.235 709.007 216.98 710.494ZM197.32 739.201C196.715 738.569 182.716 738.936 179.828 739.127C165.637 740.063 155.508 740.026 140.813 739.125C115.343 737.563 88.3225 740.294 62.6743 739.247C54.2344 746.679 64.2898 745.925 67.8302 748.309C70.7455 750.274 67.1474 752.194 73.9093 756.56C79.2527 760.011 70.1189 767.749 69.6925 773.028C69.2742 778.231 74.5311 782.905 73.8564 785.235C73.3323 787.045 64.1183 793.089 67.7356 796.669C68.4665 797.392 87.5772 797.392 88.308 796.669C91.209 793.797 84.0897 788.375 84.0913 785.375C84.0913 781.803 87.4955 781.117 88.1125 779.022C90.1736 772.032 83.5576 763.235 84.2051 760.805C84.9776 757.905 89.7216 758.011 90.2489 757.528C91.0695 756.777 88.4699 745.893 96.538 747.38C94.3471 757.485 99.8812 755.394 102.62 757.753C105.901 760.576 98.4676 773.906 98.4789 777.157C98.4853 779.099 100.293 780.958 100.705 783.282C102.035 790.782 97.6326 787.354 95.4594 790.458C89.3033 799.244 101.926 796.244 107.888 796.637C110.491 796.809 115.533 801.11 117.112 795.644C118.548 790.673 113.709 789.387 113.088 787.237C112.41 784.899 117.623 780.284 117.211 775.084C116.947 771.734 113.881 769.281 113.265 766.626C110.158 753.229 117.487 759.088 119.175 757.641C119.564 757.306 118.272 743.306 123.286 749.433C125.063 751.604 119.067 760.089 129.469 757.655C131.004 763.897 125.949 769.621 125.284 775.06C124.661 780.152 128.198 784.114 127.294 787.267C126.576 789.774 120.208 792.304 121.229 795.642C122.821 800.847 136.997 798.089 141.803 798.725C141.587 793.517 143.839 789.474 137.74 790.443C136.651 785.577 143.637 781.276 143.964 777.186C144.315 772.803 137.183 759.913 139.811 757.733C140.193 757.416 142.489 757.713 143.893 756.719C147.775 753.972 143.279 747.659 150.028 749.431C149.549 753.801 155.438 757.384 156.09 760.961C156.521 763.328 149.952 772.975 149.91 777.16C149.871 780.864 154.965 784.452 154.149 788.458C152.598 788.697 146.272 790.27 145.961 790.557C145.659 790.834 145.623 798.441 145.918 798.727C146.778 799.562 163.028 798.126 166.492 798.727C167.043 798.193 164.507 790.964 164.195 790.685C163.371 789.947 158.603 791.804 160.323 787.436C161.18 785.256 167.137 781.811 168.375 776.91C169.465 772.595 164.318 766.517 164.309 762.783C164.307 762.054 166.464 756.012 166.748 755.772C167.504 755.134 169.801 756.035 170.437 755.484C171.676 754.41 168.578 748.758 172.662 749.439C173.023 754.532 176.916 757.301 176.884 762.797C176.855 767.531 172.415 774.531 172.811 776.893C173.292 779.755 177.988 782.723 176.666 787.286C176.132 789.128 167.011 795.238 170.607 798.727C171.446 799.539 193.137 800.457 191.18 793.597C190.148 790.719 185.44 790.852 185.017 790.484C183.153 788.859 191.297 778.591 191.302 775.111C191.306 772.071 187.95 769.299 187.333 766.627C184.24 753.248 191.443 759.123 193.241 757.636C194.986 756.192 188.881 744.125 199.416 747.383C199.738 747.109 197.613 739.51 197.321 739.205L197.32 739.201ZM271.416 776.141C270.947 775.702 267.916 776.527 266.275 776.159C260.577 774.878 249.97 770.22 248.743 779.168C247.22 790.267 254.237 787.357 262.162 790.623C264.145 788.831 271.046 788.753 271.394 788.429C271.843 788.009 271.865 776.563 271.416 776.143V776.141ZM73.8949 821.335C73.6192 821.085 67.6988 819.315 66.7628 819.205C59.4368 818.341 48.3701 818.017 51.3126 828.469C52.6317 833.155 72.5518 833.185 73.8452 828.442C74.2026 827.132 74.1577 821.573 73.8949 821.335ZM71.853 833.64C68.7886 833.433 53.2391 832.249 55.3932 838.77C57.9976 846.656 75.7588 846.752 71.853 833.64ZM52.4906 846.147C46.7994 847.812 44.7047 858.629 50.3526 860.235C53.9908 861.269 70.6734 861.31 71.8145 857.224C74.8709 846.279 60.6308 843.765 52.4906 846.147ZM53.3321 874.713C54.1591 875.518 74.6241 877.239 71.8482 867.528C70.558 863.012 54.6815 862.898 53.3994 867.592C53.0468 868.884 53.0756 874.465 53.3321 874.713ZM71.8498 880.891C65.8621 879.582 45.9916 874.872 49.2596 885.969C51.2101 892.597 77.2509 895.628 71.8498 880.891ZM71.8081 895.296C70.5244 894.1 58.4079 892.245 57.4478 893.2C57.1577 893.488 57.1898 901.092 57.4895 901.371C58.7733 902.566 70.8898 904.422 71.8498 903.467C72.1399 903.178 72.1078 895.575 71.8081 895.296ZM71.8274 909.656C67.7421 909.016 51.0995 905.783 49.2484 907.616C48.9903 907.871 47.1344 914.236 47.2369 914.583C47.5399 915.611 51.38 919.391 52.5019 919.702C53.9443 920.104 65.7659 921.977 66.4455 921.791C74.084 919.692 71.821 917.094 71.8274 909.656ZM71.8274 926.092C71.3257 925.644 60.0602 923.623 58.5168 924.046C55.4156 924.897 54.6687 930.446 55.4348 933.204C56.108 935.626 66.3749 939.004 68.7213 938.356C72.4877 937.318 72.6175 926.801 71.8258 926.092H71.8274ZM71.8209 940.462L45.1021 940.436C45.1166 944.31 43.9658 951.471 48.3188 952.631C50.2885 953.155 52.6092 952.325 54.385 952.737C60.0683 954.054 71.4539 957.951 73.834 949.482C74.3372 947.692 70.5564 943.776 71.8209 940.462ZM53.3112 956.892C46.067 955.338 29.1087 950.607 32.8045 964.01C33.9921 968.316 49.1682 969.952 53.3353 969.191L53.3112 956.892ZM55.3899 971.244C55.9317 971.786 69.0226 971.614 70.7183 971.138C77.4529 969.246 74.2058 957.567 64.6729 956.759C63.1743 956.633 55.7762 958.629 55.4332 958.956C54.9877 959.381 54.954 970.81 55.3899 971.244ZM201.466 1004.09C202.751 994.83 199.097 992.532 190.107 993.794C187.891 994.105 186.216 995.663 184.017 995.927C177.414 996.722 168.755 992.794 168.545 1002.05H166.493C164.902 989.271 148.83 1000.13 139.742 997.941C138.747 1004.84 139.612 1007.42 146.89 1008.27C150.42 1008.68 157.736 1008.68 161.084 1007.95C163.728 1007.36 166.549 1003.94 169.575 1003.98C171.643 1004.01 174.076 1006.03 177.73 1006.23C186.12 1006.7 193.374 1005.77 201.466 1004.09ZM80.0813 1008.21C80.3362 1007.96 80.3666 1002.38 80.014 1001.09C78.5203 995.621 62.7849 998.7 57.4462 997.94V1008.21C61.1228 1007.58 79.1902 1009.08 80.0813 1008.21ZM87.3865 998.047C83.0624 999.276 83.0624 1006.88 87.3865 1008.11C90.0342 1008.86 98.3442 1008.5 101.705 1008.23C104.197 1008.04 107.994 1008.1 108.884 1005.13C111.184 997.435 91.8597 996.775 87.3881 998.047H87.3865ZM135.631 1008.21C136.628 1007.24 135.891 999.018 132.439 998.046C128.788 997.017 112.118 996.994 110.943 1001.02C109.663 1005.41 112.126 1007.26 116.351 1007.95C119.147 1008.4 134.941 1008.88 135.631 1008.21Z" fill="#F6F5F4"/>
<path d="M240.558 997.942C239.614 998.749 235.71 1001.71 235.214 1001.85C233.398 1002.39 216.83 1002.49 215.87 1002.05C215.703 1001.97 215.552 1000.16 213.852 999.003C208.964 995.685 181.884 976.925 181.073 974.143C181.14 955.737 180.371 937.231 180.855 918.83C181.519 893.626 182.722 865.87 185.049 840.866C185.522 835.794 183.673 827.093 185.979 823.309C188.298 819.502 218.286 803.377 223.014 802.776C226.056 802.389 231.243 802.539 232.227 806.017C234.177 812.914 231.869 831.884 232.293 840.866C232.395 843.041 234.304 844.766 234.429 846.949C237.072 893.232 234.567 940.646 238.465 986.686C238.735 989.888 241.957 993.609 240.561 997.942H240.558Z" fill="#020202"/>
<path d="M123.286 535.841C123.668 535.488 123.761 533.772 125.254 532.745C129.998 529.483 134.625 529.011 138.777 533.727C142.823 538.324 141.299 543.96 141.769 549.212C142.264 554.747 143.056 552.583 141.772 559.437C141.424 561.293 142.197 563.544 141.676 565.49C140.341 570.473 132.26 568.097 128.389 568.658C126.44 568.94 125.187 570.191 123.995 570.433C114.218 572.414 118.294 569.714 117.114 564.592H119.172C123.038 569.299 131.991 565.967 137.648 564.555C137.119 557.649 138.525 549.692 137.746 542.973C136.731 534.217 133.143 535.445 125.344 535.841H123.286Z" fill="#F6F5F4"/>
<path d="M125.344 535.84C115.66 541.518 120.063 554.657 119.172 564.594H117.114C117.072 564.413 114.814 564.554 114.947 561.578C115.062 558.999 116.7 554.171 117.124 551.298C118.678 540.741 114.586 543.891 123.288 535.842H125.345L125.344 535.84Z" fill="#7C7C79"/>
<path d="M275.533 936.327C279.136 937.045 281.31 942.302 281.705 942.489C279.073 945.938 270.263 948.224 266.311 948.71C262.017 949.237 259.518 947.029 257.994 946.984C256.844 946.952 255.573 949.929 253.71 950.492C250.373 951.5 241.635 951.346 240.622 947.556C240.273 946.247 240.299 940.683 240.555 940.435C241.068 939.935 254.438 939.951 254.895 940.502C255.831 941.627 253.309 945.433 257.013 944.54C256.323 937.417 270.024 935.23 275.533 936.327Z" fill="#F492B3"/>
<path d="M197.32 739.201C197.612 739.507 199.737 747.106 199.415 747.378C188.88 744.122 194.985 756.189 193.24 757.631C191.442 759.118 184.239 753.245 187.332 766.623C187.949 769.294 191.305 772.066 191.301 775.106C191.296 778.587 183.151 788.852 185.016 790.479C185.439 790.847 190.147 790.714 191.179 793.593C193.137 800.453 171.445 799.536 170.606 798.722C167.01 795.233 176.131 789.122 176.665 787.282C177.987 782.718 173.291 779.75 172.81 776.888C172.413 774.526 176.854 767.526 176.883 762.793C176.915 757.296 173.023 754.527 172.661 749.434C168.577 748.752 171.675 754.405 170.436 755.479C169.8 756.03 167.504 755.13 166.747 755.767C166.463 756.006 164.304 762.049 164.308 762.778C164.317 766.512 169.464 772.59 168.374 776.906C167.136 781.806 161.179 785.252 160.322 787.431C158.602 791.799 163.372 789.942 164.194 790.681C164.505 790.961 167.042 798.188 166.491 798.722C163.026 798.121 146.776 799.557 145.917 798.722C145.623 798.437 145.66 790.83 145.96 790.553C146.271 790.266 152.597 788.692 154.148 788.453C154.964 784.447 149.87 780.859 149.909 777.156C149.952 772.97 156.522 763.323 156.089 760.956C155.437 757.379 149.55 753.796 150.028 749.426C143.279 747.652 147.774 753.968 143.892 756.714C142.488 757.708 140.192 757.412 139.81 757.729C137.182 759.908 144.314 772.8 143.963 777.181C143.636 781.271 136.65 785.572 137.74 790.439C143.839 789.469 141.586 793.512 141.802 798.72C136.996 798.084 122.82 800.844 121.228 795.637C120.207 792.301 126.575 789.771 127.293 787.263C128.197 784.109 124.66 780.148 125.283 775.055C125.948 769.616 131.003 763.892 129.468 757.65C119.066 760.084 125.062 751.599 123.285 749.428C118.271 743.303 119.565 757.303 119.174 757.636C117.486 759.081 110.157 753.224 113.265 766.621C113.88 769.276 116.946 771.73 117.21 775.079C117.622 780.279 112.409 784.893 113.087 787.232C113.71 789.381 118.549 790.666 117.111 795.639C115.532 801.105 110.49 796.804 107.887 796.632C101.925 796.24 89.3024 799.24 95.4584 790.453C97.6317 787.351 102.034 790.777 100.704 783.277C100.292 780.954 98.4843 779.095 98.4779 777.153C98.4667 773.901 105.9 760.573 102.619 757.748C99.8787 755.389 94.3445 757.48 96.537 747.375C88.4706 745.888 91.0686 756.772 90.248 757.524C89.7207 758.006 84.9767 757.9 84.2042 760.801C83.5567 763.23 90.1711 772.028 88.1116 779.018C87.4945 781.112 84.0904 781.798 84.0904 785.37C84.0904 788.37 91.208 793.793 88.3071 796.664C87.5763 797.387 68.4655 797.387 67.7347 796.664C64.1174 793.085 73.333 787.04 73.8554 785.231C74.5302 782.901 69.2733 778.226 69.6916 773.023C70.1163 767.744 79.2518 760.008 73.9083 756.556C67.1465 752.189 70.7446 750.269 67.8292 748.305C64.2889 745.918 54.2334 746.673 62.6733 739.243C88.3215 740.289 115.342 737.558 140.812 739.121C155.507 740.021 165.636 740.058 179.827 739.122C182.715 738.932 196.715 738.565 197.319 739.196L197.32 739.201Z" fill="#F492B3"/>
<path d="M104.77 583.077C99.7039 565.836 96.7085 545.083 107.868 529.69C117.175 516.852 146.293 513.947 153.853 528.945C155.39 531.993 160.666 550.553 160.431 553.296C160.243 555.479 158.458 557.16 158.219 559.416C157.813 563.231 157.807 583.077 153.118 583.077H104.77ZM123.286 535.84C114.585 543.89 118.677 540.741 117.122 551.296C116.699 554.169 115.061 558.998 114.946 561.576C114.813 564.554 117.071 564.411 117.113 564.592C118.292 569.712 114.216 572.414 123.993 570.433C125.185 570.191 126.439 568.941 128.388 568.658C132.257 568.097 140.338 570.473 141.674 565.489C142.195 563.544 141.423 561.292 141.77 559.437C143.054 552.583 142.262 554.746 141.767 549.211C141.298 543.96 142.822 538.324 138.775 533.727C134.624 529.01 129.997 529.483 125.253 532.744C123.759 533.771 123.668 535.488 123.286 535.84Z" fill="#F492B3"/>
<path d="M201.466 1004.09C193.374 1005.77 186.119 1006.7 177.729 1006.23C174.074 1006.03 171.641 1004.01 169.574 1003.98C166.548 1003.94 163.727 1007.36 161.083 1007.95C157.735 1008.68 150.418 1008.68 146.889 1008.27C139.611 1007.42 138.746 1004.84 139.741 997.941C148.828 1000.13 164.9 989.271 166.492 1002.05H168.543C168.753 992.794 177.413 996.722 184.016 995.927C186.213 995.663 187.888 994.107 190.106 993.794C199.096 992.532 202.752 994.829 201.466 1004.09Z" fill="#F492B3"/>
<path d="M63.6254 587.184C64.3098 587.846 62.9298 596.767 63.6206 597.456C64.2569 598.09 73.4324 597.012 75.9663 597.456C76.7035 598.183 74.3219 607.218 73.8748 607.685C73.3475 608.237 60.3318 608.109 58.5833 607.619C53.7896 606.278 55.9997 598.188 55.325 597.514C52.5459 594.741 40.5912 598.214 46.0965 589.198C50.0296 582.756 52.1436 586.559 56.4004 587.214C58.4454 587.529 63.1622 586.734 63.6286 587.184H63.6254Z" fill="#F492B3"/>
<path d="M71.8217 940.462C70.5571 943.776 74.3379 947.692 73.8347 949.482C71.4547 957.951 60.069 954.054 54.3858 952.737C52.61 952.325 50.2892 953.155 48.3195 952.631C43.9666 951.471 45.1173 944.309 45.1029 940.436L71.8217 940.462Z" fill="#F492B3"/>
<path d="M96.5422 628.259C96.3178 632.507 98.06 641.21 93.3496 642.532C91.1779 643.141 77.2135 643.141 75.0418 642.532C70.6969 641.313 71.8412 634.033 71.8732 630.347C80.1272 628.555 88.0142 627.652 96.5422 628.259Z" fill="#F492B3"/>
<path d="M263.148 568.741C263.482 569.052 263.503 576.324 263.084 577.838C261.898 582.122 256.783 580.396 253.912 581.003C251.606 581.49 249.59 583.179 247.75 583.197C245.748 583.218 239.113 579.752 238.574 577.843C238.138 576.294 240.186 569.356 240.698 568.84C242.59 566.929 252.835 566.215 256.044 566.589C256.989 566.699 262.878 568.488 263.148 568.741Z" fill="#F492B3"/>
<path d="M217.785 634.281C215.567 636.508 199.888 637.343 196.428 636.37C192.115 635.159 193.245 628.023 193.235 624.153C199.652 625.977 220.241 616.766 220.072 627.26C220.061 627.994 218.047 634.02 217.785 634.281Z" fill="#F492B3"/>
<path d="M52.4915 846.147C60.6317 843.765 74.8718 846.279 71.8154 857.224C70.6743 861.31 53.9917 861.269 50.3535 860.235C44.7055 858.631 46.8003 847.814 52.4915 846.147Z" fill="#F492B3"/>
<path d="M86.217 525.611C86.4751 525.879 88.299 531.823 88.3919 532.709C88.9657 538.167 83.938 541.721 79.0641 542.119C74.825 542.465 70.5922 538.59 65.6783 539.934C64.8385 533.8 65.7889 526.475 72.8152 525.507C74.9147 525.217 85.7506 525.131 86.217 525.611Z" fill="#F492B3"/>
<path d="M271.417 776.141C271.866 776.561 271.843 788.008 271.395 788.427C271.048 788.751 264.146 788.83 262.163 790.621C254.238 787.355 247.221 790.267 248.744 779.167C249.971 770.22 260.576 774.877 266.276 776.157C267.917 776.526 270.949 775.701 271.417 776.14V776.141Z" fill="#F492B3"/>
<path d="M217.927 509.141C219.041 511.455 220.72 513.265 219.879 516.183C217.802 523.376 198.763 523.302 197.354 518.381C194.479 508.337 212.979 509.885 217.927 509.141C216.324 505.81 217.068 508.074 214.883 507.095C208.327 504.158 207.322 498.908 213.749 495.727C220.885 492.195 240.692 493.924 233.383 505.06C232.29 506.726 221.507 508.603 217.927 509.141Z" fill="#F492B3"/>
<path d="M71.8279 909.656C71.8215 917.094 74.0845 919.692 66.446 921.79C65.7664 921.977 53.9464 920.102 52.5024 919.7C51.3805 919.388 47.5404 915.609 47.2375 914.582C47.1349 914.234 48.9909 907.87 49.2489 907.614C51.1 905.781 67.741 909.015 71.8279 909.654V909.656Z" fill="#F492B3"/>
<path d="M55.3958 515.301C46.1081 515.189 28.1193 523.155 32.8361 506.133C34.7321 499.292 60.6399 502.26 55.3958 515.301Z" fill="#F492B3"/>
<path d="M51.2413 603.656C52.0811 604.52 54.2159 615.077 53.336 615.937C49.2811 613.905 37.123 618.219 36.0395 617.918C30.8484 616.481 29.9076 608.329 30.7009 603.616C34.1772 604.207 50.3838 602.776 51.2413 603.656Z" fill="#F492B3"/>
<path d="M53.3121 956.892L53.3361 969.191C49.1707 969.952 33.993 968.316 32.8054 964.01C29.1095 950.607 46.0678 955.339 53.3121 956.892Z" fill="#F492B3"/>
<path d="M73.8955 821.335C74.16 821.574 74.2016 827.133 73.8442 828.442C72.5524 833.185 52.6323 833.156 51.3117 828.469C48.3691 818.018 59.4358 818.341 66.7618 819.205C67.6978 819.316 73.6198 821.085 73.8955 821.335Z" fill="#F492B3"/>
<path d="M261.134 665.228C252.987 664.866 237.122 668.669 240.594 656.022C241.683 652.049 254.516 652.05 257.941 653.011C262.254 654.222 261.124 661.358 261.134 665.228Z" fill="#F492B3"/>
<path d="M71.8508 880.891C77.2519 895.627 51.211 892.597 49.2605 885.969C45.9942 874.872 65.863 879.582 71.8508 880.891Z" fill="#F492B3"/>
<path d="M135.632 1008.21C134.941 1008.88 119.148 1008.4 116.351 1007.95C112.125 1007.26 109.663 1005.41 110.944 1001.02C112.12 996.996 128.79 997.017 132.439 998.046C135.89 999.018 136.629 1007.24 135.632 1008.21Z" fill="#F492B3"/>
<path d="M55.3907 971.244C54.9564 970.81 54.9868 959.381 55.4324 958.956C55.7754 958.629 63.1735 956.632 64.672 956.759C74.2066 957.567 77.4537 969.246 70.7175 971.138C69.0218 971.614 55.9308 971.785 55.3891 971.244H55.3907Z" fill="#F492B3"/>
<path d="M259.076 696.038C253.425 696.183 242.613 697.425 240.633 690.722C240.523 690.349 242.493 684.102 242.749 683.849C242.948 683.652 247.581 681.989 248.011 681.913C260.273 679.742 259.648 685.56 259.077 696.038H259.076Z" fill="#F492B3"/>
<path d="M80.0824 1008.21C79.1913 1009.08 61.1239 1007.58 57.4473 1008.21V997.941C62.7859 998.701 78.5213 995.623 80.0151 1001.09C80.3677 1002.38 80.3388 1007.96 80.0824 1008.21V1008.21Z" fill="#F492B3"/>
<path d="M87.3873 998.047C91.8604 996.775 111.183 997.435 108.883 1005.13C107.993 1008.1 104.198 1008.04 101.704 1008.23C98.3434 1008.5 90.0333 1008.86 87.3857 1008.11C83.0615 1006.88 83.0632 999.276 87.3873 998.047Z" fill="#F492B3"/>
<path d="M267.304 667.283C267.399 668.156 268.812 674.326 269.362 677.551C264.854 681.723 250.274 679.375 248.833 674.356C248.732 674.003 250.615 667.579 250.875 667.321C251.702 666.504 264.2 667.805 267.304 667.281V667.283Z" fill="#F492B3"/>
<path d="M230.272 605.669C232.575 621.163 223.848 618.021 211.751 617.993V605.667L230.272 605.669Z" fill="#F492B3"/>
<path d="M261.131 550.216L261.134 564.595C239.051 566.722 239.192 549.421 261.131 550.216Z" fill="#F492B3"/>
<path d="M71.8277 926.092C72.6178 926.801 72.4896 937.316 68.7232 938.356C66.3769 939.003 56.1083 935.626 55.4368 933.204C54.6707 930.446 55.4175 924.897 58.5188 924.046C60.0622 923.623 71.326 925.644 71.8277 926.092Z" fill="#F492B3"/>
<path d="M216.981 710.494C222.234 709.007 236.813 709.098 234.384 717.598C232.905 722.775 215.782 722.033 213.814 715.543C213.251 713.688 215.575 710.893 216.981 710.494Z" fill="#F492B3"/>
<path d="M53.333 874.714C53.0782 874.465 53.0477 868.884 53.4003 867.592C54.6825 862.898 70.5574 863.012 71.8491 867.528C74.625 877.239 54.16 875.518 53.333 874.714Z" fill="#F492B3"/>
<path d="M71.8542 833.64C75.76 846.751 57.9988 846.655 55.3944 838.77C53.2403 832.249 68.7899 833.433 71.8542 833.64Z" fill="#F492B3"/>
<path d="M71.8086 895.296C72.1083 895.575 72.1403 903.178 71.8502 903.467C70.8918 904.422 58.7737 902.566 57.4899 901.371C57.1902 901.092 57.1582 893.488 57.4483 893.2C58.4067 892.245 70.5248 894.1 71.8086 895.296Z" fill="#F492B3"/>
<path d="M164.434 724.788H105.799C105.427 724.788 99.9763 721.402 99.542 720.764C97.9425 718.413 98.0643 691.809 98.5595 686.755C98.7663 684.652 100.347 676.809 100.932 674.745C102.831 668.037 107.458 660.257 113.022 656.008C122.623 648.678 142.439 645.341 152.154 653.867C154.339 655.783 163.543 671.893 164.165 674.737C165.163 679.303 163.905 684.292 164.394 688.884C164.654 691.326 166.234 693.438 166.564 696.983C167.42 706.125 162.686 715.135 164.433 724.786L164.434 724.788ZM143.636 667.502C143.221 667.102 141.195 667.146 139.772 666.296C138.629 665.613 137.953 663.8 136.486 663.349C130.776 661.592 123.479 666.932 120.212 671.401C112.149 682.433 115.749 695.488 115.058 708.348C124.793 709.247 134.855 711.827 144.945 710.468C146.885 710.207 149.343 709.3 149.926 707.226C150.769 704.233 150.563 688.527 150.076 684.695C149.832 682.776 144.296 668.14 143.636 667.502Z" fill="#F492B3"/>
<path d="M143.293 667.502C143.945 668.14 149.415 682.776 149.657 684.696C150.138 688.527 150.343 704.235 149.51 707.227C148.933 709.3 146.503 710.207 144.588 710.468C134.616 711.827 124.674 709.249 115.056 708.348C115.739 695.488 112.182 682.433 120.149 671.401C123.377 666.932 130.586 661.591 136.229 663.349C137.678 663.801 138.347 665.613 139.477 666.296C140.884 667.147 142.882 667.1 143.293 667.502ZM145.549 706.307C145.993 694.807 146.229 685.255 141.187 674.77C135.729 663.423 121.488 671.02 119.382 680.898C118.653 684.321 118.403 700.145 119.223 703.121C120.839 708.972 140.185 705.315 145.549 706.308V706.307Z" fill="#F6F5F4"/>
<path d="M145.919 706.306C140.491 705.313 120.911 708.971 119.276 703.119C118.444 700.143 118.697 684.319 119.436 680.896C121.568 671.018 135.982 663.421 141.504 674.768C146.607 685.253 146.368 694.807 145.919 706.306Z" fill="#020202"/>
<path d="M125.343 535.84C133.142 535.446 136.731 534.217 137.745 542.973C138.524 549.692 137.119 557.649 137.647 564.555C131.99 565.967 123.037 569.299 119.171 564.592C120.062 554.655 115.66 541.516 125.343 535.839V535.84Z" fill="#020202"/>
<path d="M13.5048 484.115C10.3699 485.573 -1.9742 489.964 0.271201 483.702C6.09385 475.003 15.8031 469.169 21.3084 460.078C23.4063 457.447 25.538 454.202 29.0751 453.892C31.2228 453.729 34.1509 454.203 35.2231 456.213C35.6639 459.397 32.3895 463.078 28.8812 468.069C24.6436 473.313 18.9781 480.639 13.8766 483.915L13.5048 484.114V484.115Z" fill="#F9C7DB"/>
</svg>
