<svg xmlns="http://www.w3.org/2000/svg" width="216" height="298" viewBox="0 0 216 298" fill="none">
<path d="M89.9988 0.121681C103.035 -0.591319 115.342 1.96168 129.809 4.32268C152.831 8.03568 183.097 12.0007 201.015 29.3847C213.834 42.6597 215.085 64.1937 215.189 81.9947C215.262 104.474 215.173 127.22 215.206 151.345C215.313 175.873 215.062 200.571 211.103 223.93C206.559 254.558 198.99 284.926 162.672 287.703C140.571 289.4 69.3698 299.733 51.1578 296.386C15.2918 289.794 6.93679 258.248 6.51979 225.188C6.25079 196.017 6.15479 165.976 2.93779 137.226C0.0407867 111.253 -1.58321 86.2067 2.25979 59.8317C4.65379 43.3897 8.76379 24.4847 24.1998 15.5747C34.3828 9.50268 47.1428 6.94368 60.2698 4.25668C69.9488 2.33968 80.0258 0.573681 89.7818 0.130681L89.9988 0.120681V0.121681Z" fill="#D9D9D9"/>
</svg>