<svg width="935" height="517" viewBox="0 0 935 517" fill="none" xmlns="http://www.w3.org/2000/svg">
<path d="M-0.000366211 571.711H921.791V470.529C921.791 469.871 934.175 471.192 934.978 470.516C935.264 470.274 932.497 465.313 931.967 463.675C930.204 458.257 921.794 431.224 921.794 427.822V399.569C914.624 398.742 911.994 409.563 906.959 411.723C905.2 412.477 898.845 413.434 898.063 412.701C895.145 409.975 911.278 396.904 908.512 393.103C907.914 392.282 892.443 385.356 890.122 384.474C886.025 382.921 880.189 380.77 875.955 380.192C870.389 379.432 846.173 382.424 845.306 381.164C844.211 379.571 847.535 374.825 847.878 372.563C848.542 368.156 848.193 360.424 847.608 355.881C846.862 350.112 839.337 327.546 833.819 326.156C831.36 325.538 816.497 334.294 811.978 334.16C803.661 341.462 797.344 341.057 793.476 352.517C791.238 359.149 790.231 381.964 781.735 366.327C776.582 356.838 778.648 349.394 766.852 341.735C759.861 337.195 748.089 339.887 739.812 337.792L751.753 335.911C757.689 333.973 759.652 321.365 760.525 315.741C762.327 304.138 764.462 299.562 749.685 301.01C745.056 301.464 727.013 311.043 723.294 314.12C720.661 316.298 717.125 322.549 715.053 325.574C714.434 326.48 714.177 329.415 712.117 327.28C711.875 327.028 713.5 322.797 713.209 320.417C711.65 307.691 700.968 289.989 690.955 282.011C688.893 280.367 680.461 275.781 679.36 279.54C678.129 283.744 677.091 295.252 676.521 300.361C675.657 308.096 678.204 317.119 667.904 304.983C661.022 296.873 654.956 284.77 646.897 277.299C636.023 267.217 632.632 287.021 628.711 290.173C626.973 291.569 622.199 290.794 619.727 293.705C616.624 297.357 614.507 310.674 606.624 308.242C610.191 303.22 614.455 297.687 616.542 291.845C617.343 289.604 616.964 287.172 617.479 284.897C618.162 281.887 622.736 277.762 616.263 277.714C610.709 277.671 602.541 286.16 597.494 288.635L574.971 307.572C578.75 294.665 580.457 281.545 581.552 268.165C578.498 267.713 576.599 269.164 574.309 270.79C572.869 271.814 563.484 280.276 562.571 281.427C560.955 283.456 551.755 302.391 549.875 288.565C548.383 277.577 545.962 254.839 536.105 276.09C534.588 279.361 532.638 284.08 531.758 287.523C530.876 290.979 532.562 298.714 527.703 292.263C525.632 289.516 524.512 283.622 520.885 281.984C504.637 274.634 514.567 303.902 512.966 304.926C512.441 305.262 510.005 304.641 508.74 305.262C506.46 306.385 501.215 311.164 498.425 309.574C495.653 307.996 491.652 296.285 489.329 293.708C487.024 291.148 480.979 291.479 477.479 288.435C474.706 286.024 466.429 275.43 462.862 271.463C457.967 266.017 461.552 266.302 467.272 267.335C477.081 269.106 486.099 270.603 496.517 269.488C498.382 269.288 511.212 266.154 511.67 265.518C514.346 261.795 502.808 256.889 500.472 255.017C496.093 251.504 492.11 244.614 487.248 240.595C478.956 233.739 467.758 230.035 456.948 230.316C454.615 230.377 446.15 233.078 445.743 232.679C445.146 232.091 451.558 220.679 452.089 217.215C452.568 214.089 450.794 210.028 452.322 206.409L437.12 212.929C435.273 214.25 424.363 232.454 425.179 220.846C425.792 212.151 428.061 212.181 421.37 203.743C416.195 197.217 399.626 184.875 391.175 186.59C388.612 187.111 387.281 203.874 387.784 206.999C388.115 209.047 391.479 214.416 390.341 215.597C389.362 216.612 380.369 211.93 377.885 211.597C372.461 210.87 357.023 213.889 354.681 212.372C351.782 210.494 355.406 205.727 354.739 205.097C354.163 204.552 344.317 208.61 345.522 203.141C346.589 198.286 360.047 195.342 361.339 183.41C362.131 176.108 363.608 168.43 355.37 168.227C337.954 167.797 327.639 174.863 312.628 178.249C310.62 178.703 305.594 179.648 306.519 176.129C307.35 172.97 313.319 166.159 315.036 162.237C315.989 160.059 319.74 150.758 315.755 149.944C312.564 149.293 299.755 157.969 295.088 158.127L283.538 165.656C283.18 163.787 283.938 162.415 284.557 160.771C287.05 154.141 293.789 138.365 297.365 132.799C300.305 128.223 298.184 136.851 301.46 137.96C313.799 142.136 305.112 112.123 301.354 111.853C300.86 111.817 297.138 114.179 296.82 115.266C295.995 118.071 299.573 120.536 298.758 122.317C296.756 126.687 284.323 133.714 283.72 141.539L274.314 166.97C272.949 152.188 276.158 137.548 276.704 122.901C276.753 121.608 275.297 119.976 275.624 119.682C276.222 119.14 278.988 121.302 280.872 120.412C289.713 116.239 273.304 99.3906 272.925 93.4333C263.674 93.188 269.792 99.5693 270.389 104.518C271.797 116.157 268.888 129.025 269.015 140.694C263.356 135.104 265.903 124.44 264.181 117.383C262.288 109.636 256.21 101.535 254.144 94.3934C253.204 91.1407 255.891 77.7998 249.243 84.8412C246.288 87.9698 244.566 93.6393 245.306 97.9338C246.334 103.906 252.088 101.586 253.352 103.367C253.868 104.094 257.829 118.204 258.336 120.47C258.903 123.017 261.69 137.381 261.111 138.06C258.348 141.306 255.184 127.559 254.778 126.645C251.96 120.297 247.456 110.396 243.71 104.821C241.029 100.829 233.81 94.7447 232.746 92.016C231.727 89.4023 234.469 87.1096 232.776 84.178C231.642 82.2124 228.957 83.8933 228.06 85.1108C226.592 87.0975 221.554 100.493 222.115 102.622C224.42 111.384 231.818 104.106 230.799 97.3311C242.251 110.136 250.265 128.02 254.511 144.629C251.706 143.281 247.368 131.509 244.632 131.518C238.809 131.536 244.132 144.613 240.031 145.946C238.563 141.764 236.813 136.373 234.663 132.584C233.798 131.064 231.76 130.615 230.492 128.532C228.769 125.703 226.395 116.396 224.732 115.818C219.112 113.861 213.455 125.585 210.398 128.91C204.99 134.795 204.026 127.768 200.322 124.401C196.67 121.078 178.284 105.666 174.802 106.541C171.299 107.425 174.08 110.766 174.08 111.126V130.179C169.879 127.402 157.826 101.305 154.959 101.296C150.079 101.28 152.315 136.015 151.669 141.376C151.438 143.299 151.02 144.971 149.042 143.317L136.409 113.183C127.777 103.888 128.851 94.6387 118.893 110.015L98.9204 149.883C100.522 142.227 102.023 133.547 104.865 126.26C107.019 120.736 115.972 108.482 114.72 103.294C114.553 102.61 113.343 101.202 112.099 101.919C109.846 103.219 105.135 110.599 103.676 113.249L98.9265 123.607C99.1569 119.628 94.8925 98.0731 91.644 97.3372C90.0638 96.9768 89.2358 98.3336 88.4199 99.4239C89.8636 103.528 92.7512 147.26 90.3429 147.282C89.2813 147.291 83.8248 130.621 82.29 127.699C78.1014 119.728 70.8068 108.885 64.6406 102.592C63.3303 112.214 72.0443 119.234 76.1268 127.272C80.1093 135.113 83.9855 147.472 86.7789 156.095C87.1187 157.14 87.5858 160.529 85.7325 158.427C80.1971 145.531 74.8802 130.8 64.6406 120.99C63.4971 132.078 72.9664 141.458 76.7304 151.637L81.1193 164.348C76.1025 160.347 73.8489 153.948 69.8756 149.268C66.1541 144.883 61.9411 142.481 57.9405 138.795C56.618 137.578 55.5505 134.628 55.147 134.392C50.9887 131.966 45.6414 140.146 46.1115 128.217C46.1813 126.478 47.6584 123.798 47.4855 123.631C44.3038 120.609 41.3496 132.457 40.8734 132.814C37.713 135.185 37.3096 127.856 36.9244 127.569C34.1885 125.53 32.6386 134.301 30.3517 131.512C29.8816 130.936 29.0626 119.5 25.7383 118.789C25.0043 118.631 23.0419 120.033 22.5111 119.676C21.5193 119.01 22.1775 111.671 19.1536 113.122C14.152 115.521 22.3625 129.243 15.8171 125.615C6.05975 120.206 9.04126 97.6007 0.0148315 90.7712V571.717L-0.000366211 571.711ZM725.296 335.193C726.361 334.645 730.164 335.517 731.89 335.193L726.743 338.555C727.68 352.544 730.291 364.392 735.839 377.23C730.507 372.466 723.64 360.912 722.945 353.931C722.603 350.478 725.308 343.395 725.739 338.84C725.887 337.262 725.132 335.278 725.296 335.193Z" fill="#F6F5F4"/>
<path d="M59.3505 22.4432C57.3062 24.5511 38.5467 18.0154 44.5552 33.8943C46.7845 39.7818 52.7142 40.9448 52.8204 41.5202C53.5695 45.6845 46.3751 52.2838 51.968 56.7237C53.0448 57.5808 64.6737 59.0709 66.448 58.8831C68.0889 58.7075 71.4526 55.5274 72.5263 56.6086C72.9054 56.9902 71.5314 59.6281 71.6557 60.991C71.9105 63.75 73.415 66.3425 73.6637 69.2621C74.5736 79.8379 73.1813 94.0359 75.4561 104.285C76.9211 110.884 88.2588 112.644 88.095 107.513C87.9858 104.073 86.0416 99.1603 85.7353 95.3473C85.5108 92.5428 84.8133 75.6706 85.7292 75.0012C90.0059 71.8818 102.041 88.4754 104.055 72.9024C104.962 65.8913 100.879 59.0164 108.89 58.0442C112.833 57.5657 132.563 57.5475 130.4 49.6096C128.571 42.8982 108.389 38.2403 106.891 33.44C106.045 30.7263 119.317 16.81 112.551 14.7475C105.587 12.6245 90.943 16.9554 86.6482 15.6743C82.5444 14.4538 77.5581 -0.661911 70.6154 0.0225494C64.4522 0.631295 64.0973 7.99076 62.5747 11.8552C62.1198 13.0061 60.0936 13.8602 59.5992 15.4623C58.9957 17.4187 59.6174 22.1645 59.3505 22.4401V22.4432Z" fill="#F6F5F4"/>
<path d="M357.381 203.789C355.952 204.431 359.292 205.991 361.324 205.079C362.752 204.437 359.413 202.877 357.381 203.789Z" fill="#F6F5F4"/>
<path d="M-0.000473022 272.104C9.87521 269.706 15.5986 276.126 24.3005 275.987L63.2907 261.577C62.9844 259.121 56.4936 260.184 54.8618 260.414C43.8578 261.965 33.336 266.287 22.42 268.149C26.1113 264.709 34.2794 260.95 39.199 259.257C45.6504 257.04 52.1684 257.189 58.0192 254.357C48.1647 251.571 37.6036 254.72 27.6946 256.323C31.8135 244.329 61.5679 250.801 64.6132 248.445C67.1609 246.471 63.8276 246.18 62.7387 245.71C49.6237 240.032 38.3255 231.552 27.6976 222.184L73.8519 247.128C64.6526 236.328 54.9892 225.525 42.2837 218.807L38.2467 214.301L58.456 223.717L82.4294 244.505C84.4009 243.472 82.1261 241.346 81.4861 240.189C78.5926 234.95 75.0894 230.022 71.2192 225.452C73.488 224.338 79.7512 229.816 81.7621 232.03C87.4158 238.254 89.36 246.386 93.5123 253.127C93.952 253.839 94.1007 257.634 96.2633 255.026C97.5736 253.445 99.0325 223.284 102.187 216.896C102.484 216.294 103.873 215.24 104.171 215.603C105.205 216.863 102.766 244.145 104.189 245.831C104.316 245.983 108.007 245.983 108.135 245.831C108.411 245.501 107.995 239.372 108.274 237.415C109.287 230.374 111.322 219.086 113.74 212.629C114.259 211.248 114.183 208.728 116.039 209.037C115.799 219.964 110.182 232.766 110.746 243.848C111.122 251.21 115.165 240.589 115.781 239.644C117.164 237.515 119.224 235.725 120.279 233.614C124.38 225.416 124.856 213.568 131.862 206.405C129.985 213.401 129.448 220.715 127.537 227.708C126.627 231.04 119.175 248.945 120.009 249.76C121.944 251.652 126.051 247.143 127.167 245.735C132.536 238.96 135.46 229.853 139.127 222.16C141.11 222.224 138.875 241.177 138.15 243.536C137.231 246.525 127.671 258.748 129.245 260.272C130.549 261.535 157.562 246.125 163.525 248.463C155.393 256.404 142.715 258.942 135.833 268.149C150.519 266.671 163.504 259.554 178.026 257.661C177.295 259.572 173.349 261.332 171.493 262.301C166.4 264.96 157.98 269.533 152.967 271.435C149.354 272.804 137.771 274.227 137.146 274.739C135.126 276.393 137.158 277.138 139.105 277.365C142.351 277.741 149.36 278.607 152.178 278.549C159.476 278.404 167.908 273.601 175.39 274.067C171.238 277.438 166.261 280.427 161.25 282.317C155.323 284.552 138.775 286.393 135.812 288.507C133.886 289.882 135.071 291.224 136.667 291.639C145.366 293.898 167.161 288.683 175.7 284.891C189.33 278.837 195.129 268.301 205.688 259.584C208.323 257.41 217.595 253.624 217.604 250.435C217.608 249.051 195.257 239.529 192.482 238.651C182.272 235.422 173.731 234.844 163.176 236.933C160.561 237.451 147.195 242.661 146.388 241.873C145.842 241.34 149.479 232.445 149.949 230.322C155.245 206.284 144.359 198.801 139.069 178.872C137.713 173.76 140.331 166.592 131.908 172.927C129.764 174.542 129.111 177.234 127.255 178.803C113.891 190.102 100.74 197.689 96.3512 216.339C95.5414 219.786 94.3343 234.659 93.6245 235.307C91.5499 237.203 86.4786 227.663 85.0773 226.097C75.6051 215.509 60.7884 206.399 49.4538 197.198C38.6257 188.413 23.8547 185.938 10.5577 189.969C12.0955 192.204 14.1276 191.82 16.4146 192.017C28.101 193.028 35.3015 192.204 46.1205 197.956C46.9394 198.392 51.1827 198.885 48.7805 201.145C48.095 201.79 33.9731 196.887 30.573 196.305C20.4 194.561 10.0208 194.518 -0.000473022 191.947V205.088C6.28709 210.436 9.26866 219.013 14.5189 225.443C13.9821 227.115 11.7709 224.014 11.2098 223.484C7.22133 219.728 3.79086 215.564 -0.000473022 211.657V224.798C7.88855 231.524 12.0439 238.714 22.4443 242.509C26.2113 243.884 32.0319 246.773 34.2824 241.897C27.5126 240.192 22.0287 234.174 17.1485 229.392C21.0612 228.502 25.7897 234.532 29.9208 236.376L44.8345 244.499C27.8129 245.144 13.0508 250.807 -0.00352478 261.595V272.107L-0.000473022 272.104ZM48.7926 209.043C54.4887 210.358 60.379 212.865 63.2968 218.217C57.7888 217.92 52.5718 212.732 48.7926 209.043ZM20.764 216.887C20.764 215.991 21.4919 215.264 22.3927 215.264C23.2935 215.264 24.0215 215.991 24.0215 216.887C24.0215 217.784 23.2935 218.511 22.3927 218.511C21.4919 218.511 20.764 217.784 20.764 216.887Z" fill="#F492B3"/>
<path d="M-0.000839233 327.298C13.8724 326.404 29.144 328.515 42.8383 327.279C46.7783 326.925 62.5442 321.304 63.2904 322.049C64.1305 322.888 61.8557 328.506 61.2946 329.902C55.9443 343.255 41.1884 353.077 37.5396 366.678C36.3142 371.239 37.3758 375.631 36.6084 380.204C36.2323 382.451 32.2711 389.693 32.9717 390.365C33.8634 391.219 53.7089 386.885 57.3729 386.44C59.1017 386.231 64.2973 386.721 64.6188 386.419C64.7947 386.252 63.7272 384.583 63.7939 383.432C63.9759 380.213 65.5197 376.079 64.628 372.814C64.2761 371.53 61.5706 372.339 61.977 371.33C64.3458 365.449 74.3034 363.22 79.5506 359.915C90.0997 353.271 101.122 342.035 107.898 331.659C109.26 329.572 110.376 327.146 110.788 324.678C114.049 326.389 112.963 332.049 114.886 335.681C118.319 342.171 135.96 354.482 143.087 354.709C144.082 354.743 147.698 353.855 147.71 352.919C147.719 352.217 139.263 348.573 137.485 347.326C132.278 343.676 122.599 331.962 118.917 326.407C117.5 324.272 112.687 313.29 112.068 312.848C107.558 309.632 105.341 324.393 104.737 325.88C102.359 331.756 98.11 332.004 94.6372 335.169C92.426 337.183 85.5865 344.885 83.7211 345.681C82.1591 346.347 81.1005 345.293 81.7708 343.737C82.4108 342.247 90.8428 333.87 92.8567 331.126C96.0536 326.771 98.7318 322.04 101.531 317.43L96.8635 318.036C95.7443 320.798 78.7196 338.879 76.4903 336.486C75.735 335.675 79.484 326.089 80.6547 324.224C83.6453 319.46 89.4112 316.437 92.3077 311.54C80.0541 314.565 73.897 328.773 64.628 336.495L75.1436 314.793C75.5561 312.927 84.983 302.851 84.3976 302.342C79.9025 298.45 67.1363 318.563 65.271 319.408C64.3277 319.835 64.5218 316.858 63.354 316.077C59.8963 313.766 51.7434 319.166 47.4789 317.446C53.084 312.364 59.2897 310.092 66.6206 308.981L80.4424 294.456C74.9404 294.592 71.5828 299.183 66.8664 301.282C59.2564 304.668 48.2585 308.741 40.2724 311.573C34.461 313.636 27.2059 315.771 21.1033 316.77C23.6572 313.203 28.7528 309.932 32.5471 307.818C45.559 300.567 59.7508 296.536 73.5027 292.102C75.1831 291.56 78.7591 292.09 79.1291 291.812C82.3502 289.359 73.3025 288.165 72.0468 288.289C64.4186 289.044 44.8492 294.029 36.9177 296.403C31.4673 298.035 26.7994 301.485 21.1033 302.315C35.5256 290.428 55.1284 288.141 72.5261 282.602C72.8325 280.303 69.5355 281.372 67.9371 281.305C56.0353 280.809 47.0664 284.619 35.6105 285.231C42.7564 278.789 54.8311 278.359 64.1214 274.888C65.7987 274.261 68.1675 274.6 68.58 272.114C54.6612 272.205 36.5871 273.664 23.7663 279.352C13.6086 283.856 7.49083 292.099 0.00822449 299.698V327.295L-0.000839233 327.298ZM14.5064 306.258C13.8331 305.725 17.1087 302.581 18.4615 303.653C19.1348 304.186 15.8592 307.33 14.5064 306.258Z" fill="#F492B3"/>
<path d="M-0.000522614 153.841V165.668C6.22941 163.115 12.5867 158.714 19.7933 159.756L-0.000522614 172.24V174.869L47.4732 166.998C44.2005 171.038 38.1222 174.03 33.3117 175.868C26.7027 178.397 11.6223 179.793 7.88855 182.071C5.91098 183.279 7.16664 184.797 8.74688 185.208C19.8874 188.101 46.5906 180.29 56.2995 173.806C65.335 167.773 65.9234 157.987 56.0841 152.491C39.2323 143.081 16.8209 145.552 -0.000522614 153.841Z" fill="#F492B3"/>
<path d="M-0.000368595 151.212C8.34969 139.831 8.9654 118.976 -0.000368595 107.849V151.212Z" fill="#F492B3"/>
<path d="M-0.000606537 240.568C2.74433 244.06 12.3319 249.008 16.4023 248.481C17.8339 248.297 20.4362 246.698 19.7781 245.838C19.3777 245.314 10.9215 242.264 8.01277 239.808C4.70369 237.009 3.56326 233.505 -0.000606537 231.367V240.565V240.568Z" fill="#F492B3"/>
<path d="M610.561 340.435C609.863 341.296 594.552 328.703 592.541 327.525C586.217 323.815 572.044 317.885 564.971 316.888C555.738 315.589 544.698 316.825 535.416 314.138C535.168 311.619 538.195 313.118 539.645 313.218C542.808 313.436 545.435 315.265 549.038 312.936C549.678 312.524 557.091 300.198 556.505 299.713C553.885 297.542 531.213 301.491 526.59 303.399C515.331 308.042 497.345 325.259 489.28 334.554C487.855 336.199 481.54 345.778 482.668 347.008C483.117 347.498 486.714 344.249 487.9 343.885C489.435 343.413 491.2 344.648 493.129 343.767C496.354 342.295 516.36 317.824 519.578 320.741C521.874 322.821 494.464 346.138 497.172 352.265C501.316 350.163 524.516 325.965 527.491 328.624C529.86 330.744 508.54 347.731 506.751 349.261C506.093 349.824 503.026 350.248 505.083 352.262C505.614 352.78 508.71 350.715 509.02 350.942C509.329 351.169 509.672 356.136 511.704 358.147C513.63 360.055 527.734 366.83 531.416 368.786C532.356 369.286 536.202 369.54 534.082 371.96C533.794 372.29 530.069 373.241 528.877 372.672C525.468 371.048 520.451 366.381 516.126 364.249C514.015 363.21 504.852 358.622 506.405 362.102C507.691 364.985 514.731 367.166 517.6 369.352C520.385 371.475 523.594 377.09 524.886 377.86C527.84 379.619 533.906 377.823 535.407 382.475C533.19 382.784 530.372 381.945 528.337 382.469C526.945 382.827 527.961 385.571 526.842 385.113C524.152 384.014 520.682 377.469 518.319 375.207C516.569 373.532 505.783 364.646 504.397 364.107C499.089 362.035 506.778 371.654 506.396 371.963C504.152 373.777 496.296 362.472 493.22 361.463L497.909 371.887L510.336 387.742L497.145 377.905L488.607 368.041C483.235 370.661 479.365 396.54 472.119 400.883L481.325 373.29C474.543 379.853 470.442 389.368 464.964 397.094C464.385 397.912 463.672 401.68 461.555 399.557C459.72 397.718 477.275 369.277 476.053 368.038C475.04 367.011 472.171 369.507 471.422 370.64L454.97 391.676C456.023 387.715 457.206 382.981 459.077 379.362C461.764 374.153 468.091 370.282 467.494 364.098C460.22 368.865 455.261 375.401 449.899 382.042L445.744 390.365C446.123 377.315 456.165 367.971 464.194 358.846L447.057 358.822C446.754 356.52 450.045 357.595 451.652 357.52C454.103 357.405 464.039 357.989 458.941 355.53C453.539 352.922 442.905 351.826 435.616 348.549C431.625 346.753 425.104 343.991 423.302 339.793C427.888 340.205 431.725 344.103 435.804 345.733C439.571 347.238 445.183 348.937 449.168 349.497C450.8 349.727 457.285 350.796 457.594 348.337L440.478 342.389L427.281 335.19L466.836 346.992C463.138 343.582 457.078 339.13 452.759 336.719C451.109 335.799 433.484 328.672 435.186 327.307C439.083 324.172 462.656 339.197 467.721 341.523C468.925 342.074 471.094 344.364 472.104 342.413C463.551 334.775 454.257 327.182 442.902 324.205C435.613 322.294 424.715 321.882 417.381 322.285C414.931 322.418 400.175 324.002 399.58 324.675C396.614 328.018 405.182 334.524 406.153 335.802C414.294 346.535 421.788 359.17 436.432 362.193C440.057 362.941 451.743 362.244 452.328 362.78C454.418 364.698 446.832 368.832 445.744 370.004C430.569 386.358 429.244 400.441 431.252 422.544C431.443 424.633 432.638 433.334 434.564 433.728C436.593 434.143 466.56 415.681 470.099 412.667C477.624 406.259 481.243 400.189 485.965 391.685C487.1 396.77 485.064 401.577 485.231 406.831C485.392 411.928 488.097 420.669 490.764 425C491.564 426.299 501.027 437.335 501.801 437.659C504.412 438.759 503.769 435.857 503.815 434.349C503.927 430.518 502.332 427.326 502.332 423.873C502.332 416.217 505.213 406.586 503.775 398.248L538.137 429.04C540.952 430.972 545.629 433.274 549.059 432.495C553.761 431.429 549.508 392.085 546.578 387.778C544.91 385.322 541.058 386.364 540.691 383.805C553.315 385.913 564.719 391.307 577.601 387.07C581.877 385.661 585.204 382.142 589.478 381.176C585.01 387.061 580.309 390.643 577.964 397.948C576.372 402.915 570.339 434.122 572.335 436.36C572.808 436.89 577.552 436.151 578.968 435.736C586.239 433.592 605.911 424.421 611.811 419.845C620.409 413.179 622.848 405.705 625.735 395.625C629.132 399.054 627.152 404.075 628.338 408.8C631.292 420.569 643.728 428.452 652.12 435.036C655.12 437.39 657.674 441.469 660.74 443.529C661.808 444.246 668.314 447.19 668.587 446.866C669.072 446.294 668.359 434.676 668.702 431.856C669.008 429.34 670.525 427.195 670.916 424.863C671.319 422.453 672.09 410.644 672.563 410.069C673.497 408.921 689.4 418.303 693.309 418.961C698.933 419.906 705.09 418.946 710.795 419.261C710.831 416.986 707.568 417.767 705.887 416.262C704.335 414.869 696.288 403.154 696.494 401.77C697.176 397.2 711.456 387.279 710.795 386.437C709.967 385.386 698.004 381.691 696.354 380.446C692.239 377.342 696.718 377.372 698.238 375.943C707.471 367.263 709.524 359.782 716.076 350.545C716.949 349.315 719.075 349.903 718.705 348.976C716.634 343.806 706.709 346.199 702.239 345.672C696.97 345.051 691.653 343.767 686.391 343.067C684.638 342.834 679.515 343.373 679.154 343.049C677.783 341.82 689.145 330.25 688.608 326.861C689.033 325.078 692.299 318.569 689.014 318.085C687.856 317.915 670.458 324.569 667.698 325.732C664.895 326.913 656.743 332.522 656.069 332.516C653.012 332.498 655.296 323.842 655.071 321.437C654.641 316.849 645.141 284.049 642.89 283.949C642.087 283.913 631.243 291.666 629.669 293.09C620.785 301.115 612.751 316.407 610.916 328.279C610.497 330.977 610.946 339.951 610.564 340.423L610.561 340.435ZM531.449 345.681C530.764 345.115 540.406 334.339 540.676 330.496C541.082 324.681 534.097 323.248 536.06 318.106C541.604 323.421 544.094 330.49 549.217 336.529C562.362 352.026 569.132 355.578 587.673 362.659C589.575 363.386 591.519 361.393 590.779 365.403C576.217 360.603 566.005 356.426 550.885 361.775C542.359 364.791 538.322 371.609 531.449 360.161C541.613 361.817 548.434 358.804 557.476 356.517C560.715 355.7 566.803 358.013 565.732 353.598C559.563 352.695 554.78 345.908 548.959 344.682C544.252 343.691 532.129 346.238 531.449 345.681ZM514.306 349.624C516.527 347.668 527.94 335.965 530.13 337.822C531.498 338.982 518.119 351.275 514.306 349.624ZM638.477 345.917C643.212 342.655 644.713 348.113 643.303 352.686C642.484 355.342 639.715 355.27 638.684 356.626C638.244 357.205 633.964 365.058 634.319 365.4C634.768 365.836 638.332 364.113 640.091 364.186C643.072 364.307 646.642 366.318 650.13 365.418C650.482 367.796 644.935 366.533 644.886 368.692C644.835 370.955 651.189 370.452 651.456 370.67C652.912 371.872 648.829 375.001 648.838 375.264C648.875 376.236 655.335 377.675 652.763 379.859C652.396 380.171 645.981 378.281 643.467 380.595C641.474 382.43 643.706 386.079 639.603 385.113C638.705 374.159 635.041 380.985 633.169 379.756C632.281 379.174 632.496 374.913 629.041 375.924C628.696 377.972 629.499 387.327 629.029 387.754C628.787 387.972 626.794 386.491 625.887 386.694C622.66 387.412 619.736 401.004 617.88 404.881C617.41 405.865 613.764 413.406 611.895 411.395C611.055 410.49 621.234 393.76 621.086 391.019C620.801 385.855 612.241 394.729 611.905 394.317C610.967 393.181 613.321 389.859 613.266 388.505C613.23 387.66 610.722 387.936 610.521 386.882C610.258 385.498 612.763 379.628 608.659 378.947C603.536 378.096 596.575 385.631 596.081 385.116C593.536 382.475 606.318 376.715 603.973 374.61C602.714 373.48 595.168 378.998 594.762 378.547C590.891 374.225 602.481 373.68 602.663 370.676C600.94 371.512 588.844 369.876 592.111 366.733C595.007 363.946 609.709 370.037 614.525 368.023C615.132 365.782 611.768 367.417 611.804 365.991C611.844 364.486 614.088 361.778 613.063 360.345C612.745 359.897 603.606 355.751 606.633 352.268C606.894 351.968 613.027 355.781 613.567 356.175C615.189 357.362 615.359 360.645 617.813 360.146C621.295 359.434 618.796 350.566 620.464 348.331C624.352 353.837 626.081 355.291 632.344 357.35C634.58 357.235 637.455 346.629 638.486 345.92L638.477 345.917ZM514.919 383.205C513.566 381.409 511.355 379.753 511.68 377.233C514.968 379.038 518.076 382.621 518.249 386.425C517.16 386.382 515.592 384.099 514.919 383.205ZM658.035 389.056C657.501 389.726 654.343 386.464 655.423 385.116C655.957 384.447 659.114 387.709 658.035 389.056Z" fill="#F492B3"/>
<path d="M228.16 264.224C226.601 265.369 215.539 296.642 215.093 300.497C213.916 310.658 215.348 321.168 216.261 331.241C209.233 326.174 202.354 320.977 195.069 316.234C191.529 313.929 185.645 312.3 182.952 310.259C180.668 308.526 178.76 304.247 175.309 301.757C167.259 295.952 158.196 293.825 148.366 294.461C145.536 294.646 135.521 295.652 139.764 297.75C142.97 299.337 158.351 298.774 163.871 300.01C167.523 300.828 173.389 302.935 175.39 306.258L125.284 298.396L126.279 305.819L143.728 333.866C138.569 328.512 130.965 323.185 126.024 318.012C125.624 317.594 117.173 303.974 118.666 312.197C118.848 313.205 127.01 328.724 128.138 330.359C130.313 333.506 140.204 343.618 143.297 345.481C149.649 349.309 154.644 350.46 162.2 349.618L148.162 339.972L145.069 335.829C148.159 334.066 151.702 339.024 154.696 340.693C160.741 344.061 167.049 345.754 173.304 348.434C174.656 349.012 176.519 348.815 176.713 350.935C145.102 351.017 126.361 363.749 115.357 392.963C114.35 395.637 114.902 398.733 113.734 401.855C113 403.818 108.156 407.11 114.043 407.485C118.411 407.764 127.331 404.993 132.494 404.75C140.182 404.39 147.905 405.653 156.264 404.811C166.461 403.784 176.015 400.298 185.945 398.263C183.379 403.563 172.776 434.576 175.409 437.671C175.876 438.222 186.576 432.423 188.605 431.781C195.666 429.548 227.966 425.951 229.47 424.518C229.576 424.415 228.008 422.035 228.133 421.929C228.284 421.798 230.65 421.913 231.945 421.138C235.694 418.897 240.893 415.36 244.314 412.664C245.436 411.78 245.036 410.038 245.955 410.05C248.961 410.087 256.668 423.373 262.458 423.846L313.089 438.919C316.735 437.859 313.374 430.572 312.57 427.786C310.723 421.371 307.948 412.074 305.276 406.147C304.314 404.018 297.326 393.648 298.045 392.996C298.946 392.179 304.663 394.208 306.619 394.299C341.278 395.865 360.778 382.902 378.406 354.203C367.699 348.946 357.05 339.612 346.471 334.872C342.464 333.076 333.863 329.814 329.419 328.212C315.033 323.027 296.028 324.947 282.631 332.301C280.371 333.542 272.109 340.953 271.678 340.426C270.696 339.236 276.944 324.09 276.944 320.059C276.944 315.549 273.926 308.235 271.915 304.047C266.037 291.811 243.553 271.862 231.536 265.432C230.683 264.975 229.115 263.518 228.169 264.212L228.16 264.224ZM263.747 326.64C264.669 319.571 263.077 310.916 263.747 303.644L270.034 316.434C272.479 329.323 268.199 332.773 264.429 343.091C262.828 347.474 258.075 362.496 265.364 353.219C271.29 345.678 281.22 339.509 290.49 336.204C292.158 335.611 295.527 334.148 296.71 335.832C294.214 338.161 282.755 345.484 286.18 349.636C286.377 349.875 290.035 346.923 291.439 346.347C296.671 344.206 306.346 340.887 311.848 340.381C312.883 340.287 316.674 340.002 314.502 341.744C309.11 342.786 302.312 344.575 299.355 349.624C306.783 351.22 344.384 344.012 348.148 347.019C348.585 347.368 346.465 349.636 346.171 349.636H318.479C317.551 349.636 306.807 354.636 308.588 357.52H353.426C352.898 360.136 350.732 359.776 348.803 360.139C341.063 361.593 331.466 363.353 323.744 364.076C321.196 364.316 310.438 363.643 309.916 364.095C308.564 365.264 312.067 368.426 313.383 369.171C322.604 374.392 333.119 370.624 342.874 370.673L332.634 375.561C320.565 377.039 309.058 381.133 296.726 379.871L301.245 383.896L312.543 386.415C298.624 390.943 288.409 384.962 275.627 381.185C276.844 383.269 299.012 400.065 296.726 402.185C295.218 403.581 287.205 394.668 285.291 393.224C283.805 392.103 272.464 384.274 271.675 385.119C270.489 386.394 272.613 389.18 273.577 390.437C277.277 395.262 285.964 400.083 290.678 406.25C293.747 410.268 296.853 415.629 298.033 420.59L286.043 405.611C283.295 404.511 263.629 386.427 262.443 387.745C261.575 388.711 265.994 397.824 267.135 399.481C271.703 406.104 282.734 414.83 288.809 421.247C289.34 421.807 292.455 424.012 290.775 424.542C273.677 418.836 264.059 402.918 252.537 390.371C250.908 396.564 254.463 404.826 257.899 409.993C258.697 411.192 264.347 416.102 263.75 416.632C261.12 418.982 249.373 404.127 247.844 401.583C245.94 398.409 247.672 394.862 243.277 398.215C236.119 403.678 239.255 415.968 226.831 415.317L233.158 407.843L238.023 396.922C232.464 398.784 230.14 405.214 226.164 408.757C224.732 410.032 212.861 417.24 212.333 416.644C210.11 414.133 232.015 391.419 230.783 390.374C228.766 388.663 210.398 404.82 206.379 406.122C203.377 407.095 210.213 398.436 210.968 397.554C215.685 392.055 221.718 387.578 226.828 382.49C217.893 383.008 209.152 390.01 201.881 395.071C200.753 395.855 194.653 403.536 193.856 398.878C192.509 391.043 210.88 382.333 216.316 379.177C217.159 378.686 221.184 378.099 218.906 375.909C218.472 375.494 209.115 378.935 207.471 379.613C195.709 384.471 185.77 392.724 172.005 394.232C169.4 394.517 170.07 393.963 170.131 391.697C181.199 385.637 192.882 380.682 204.089 374.91C207.204 373.305 206.701 373.087 203.734 373.235C184.302 374.213 161.839 390.701 142.436 394.293C148.836 385.71 161.975 379.865 171.872 375.673C179.543 372.426 186.507 370.1 194.638 368.126C196.264 367.732 200.064 368.335 200.459 368.017C202.081 366.702 200.665 365.409 198.457 365.345C194.559 365.233 188.484 366.472 184.353 367.087C169.767 369.255 159.931 372.502 146.485 377.975C144.265 378.88 142.248 379.222 145.129 376.621C154.511 370.857 166.937 365.358 177.689 363.071C181.778 362.202 187.865 364.51 189.91 360.136H166.831C165.035 360.136 155.211 364.894 154.311 364.073C152.087 362.047 156.033 361.221 156.788 360.681C166.631 353.637 181.396 354.564 193.195 354.879C196.495 354.966 201.178 358.434 203.094 353.579C185.751 349.327 169.209 339.975 155.621 328.612L194.493 345.711C198.718 346.801 203.531 349.082 207.808 349.548C210.24 349.815 210.671 348.179 209.685 347.01C209.4 346.674 203.258 345.154 201.305 344.173C188.114 337.537 174.893 330.359 164.853 319.411C171.444 319.786 211.696 346.299 213.634 344.366C215.348 342.658 211.484 340.853 210.58 340.196C199 331.777 186.74 324.202 175.406 315.471C190.556 319.85 205.136 329.033 218.02 338.04C219.655 339.182 228.973 347.534 229.458 346.995C230.692 345.632 226.07 341.777 225.239 340.042C222.4 334.118 219.785 323.872 221.002 317.454C221.244 316.17 220.896 313.793 222.861 314.153C224.541 322.44 227.311 332.843 234.729 337.797C233.929 326.446 229.306 315.843 230.783 304.265C231.014 302.46 231.748 300.155 233.416 302.308C233.577 302.517 233.45 305.888 234.077 307.545C236.74 314.592 240.99 323.412 242.594 330.629C243.453 334.49 241.478 339.612 244.626 343.043C252.528 327.509 246.565 311.482 244.605 295.761C244.432 294.371 242.746 291.527 245.275 291.811C252.412 305.855 256.061 317.285 255.9 333.249C255.852 337.997 253.161 341.898 255.855 346.989C259.303 343.194 263.107 331.583 263.753 326.625L263.747 326.64ZM146.385 319.42C148.581 317.155 155.997 329.16 148.075 322.403C147.422 321.846 144.362 321.51 146.385 319.42ZM138.475 379.865C138.569 379.768 141.265 379.365 141.098 380.51C139.042 384.089 136.973 381.397 138.475 379.865Z" fill="#F492B3"/>
<path d="M67.2675 5.34976C67.0339 5.54964 66.8186 9.56858 66.0027 11.3221C64.8138 13.8722 61.7655 17.4217 61.3681 19.6507C61.0315 21.5406 62.7512 26.8921 61.9717 27.6856C61.3954 28.2731 47.6162 24.5025 46.1694 29.742C44.6863 35.1117 56.13 40.3693 56.5577 42.989C57.0005 45.7026 47.7345 53.5921 56.0633 56.5874C65.2293 59.8825 69.791 52.0263 73.0576 52.7501C74.2526 53.0167 83.913 68.1051 88.3322 71.7303C111.599 90.8164 95.4326 57.3839 97.5861 55.2942C98.3808 54.5249 104.047 56.1664 105.921 56.1058C111.098 55.9362 117.707 54.5734 123.258 53.9798C124.553 53.8404 124.092 51.775 123.759 50.8845C121.387 44.5972 102.281 37.0591 101.608 34.7422C100.731 31.7287 105.751 27.3433 107.447 25.0386C108.293 23.8908 110.662 23.1336 108.15 21.7556C100.31 17.452 89.5757 23.6 83.9675 22.5309C82.7452 22.2977 71.3985 1.80934 67.2614 5.34976H67.2675Z" fill="#F492B3"/>
<path d="M817.637 354.903C816.412 355.927 813.646 363.837 811.671 365.4C811.386 350.569 806.394 359.894 802.442 366.714C800.725 366.112 802.833 361.417 801.116 361.451C789.854 361.675 796.952 402.53 801.241 403.457C804.495 404.16 806.145 399.526 806.494 399.496C812.393 398.975 812.172 407.443 821.538 396.255C831.301 384.595 826.943 375.182 826.84 361.472C824.571 360.197 820.573 364.458 820.264 364.095C819.706 363.437 821.759 351.459 817.637 354.903Z" fill="#F492B3"/>
<path d="M825.524 412.697C825.748 412.934 829.179 412.343 830.216 413.957C831.123 415.372 830.283 418.17 831.068 419.018C831.575 419.566 833.622 419.306 834.62 420.078C835.751 420.953 835.873 422.94 836.998 423.246C839.579 423.955 852.685 422.201 856.179 421.577C862.688 420.417 873.334 418.409 876.956 412.725L873.003 412.061C881.478 406.159 889.306 398.851 872.676 401.225C866.752 402.07 861.675 405.444 855.854 406.131C860.638 401.077 869.667 401.264 872.997 394.329C864.368 393.121 857.635 399.85 849.261 400.874C851.872 396.749 858.02 395.544 862.439 394.299L850.58 392.99C853.213 386.122 843.122 391.307 840.001 393.626C837.244 395.674 823.003 410.035 825.524 412.697Z" fill="#F492B3"/>
<path d="M754.313 360.161C753.664 360.718 761.122 373.262 760.901 375.909L751.689 366.718C750.61 371.415 753.567 374.362 754.301 378.544L749.697 373.314C745.914 375.031 749.345 379.58 749.036 379.847C746.94 381.67 745.02 374.513 742.451 377.236C738.684 381.231 751.256 390.507 753.609 393.018C755.447 394.98 755.842 398.012 758.942 400.871C762.014 403.706 770.2 408.255 774.419 407.219C775.566 406.937 784.844 400.535 785.311 399.581C792.369 385.256 758.508 356.548 754.316 360.158L754.313 360.161Z" fill="#F492B3"/>
<path d="M722.663 407.443C722.132 407.888 717.592 407.158 716.075 407.461C715.217 411.074 718.244 409.711 719.782 412.249C720.71 413.782 720.528 416.156 722.029 417.94C727.625 424.579 748.875 428.152 757.289 426.853C762.794 426.005 770.049 421.862 764.862 416.665L767.495 416.005C759.545 410.79 746.491 400.753 737.246 398.839C733.992 398.166 723.688 397.4 721.292 398.869C718.271 400.72 723.094 407.083 722.663 407.446V407.443Z" fill="#F492B3"/>
<path d="M369.253 391.679C374.639 391.718 380.166 386.325 384.7 385.404C395.546 383.199 409.086 384.383 419.72 379.565L443.093 364.101C429.044 364.025 416.656 360.627 402.807 365.339C394.679 368.105 387.773 375.388 380.46 379.865L369.253 391.679Z" fill="#F492B3"/>
<path d="M483.975 335.181C487.408 335.729 486.344 334.678 486.987 332.334C491.788 314.823 489.732 302.224 475.394 290.509C474.657 295.491 473.265 300.522 473.323 305.637C473.347 307.736 476.453 333.53 481.33 328.603C482.68 327.237 478.537 315.438 483.975 316.782V335.181Z" fill="#F492B3"/>
<path d="M453.742 310.31C449.644 313.217 459.617 329.872 464.178 331.241L463.526 320.734C466.672 327.113 469.79 332.567 476.047 336.498C475.143 330.768 474.406 313.872 466.25 315.595C464.339 315.998 464.524 319.799 463.538 319.411C462.122 318.854 459.796 306.012 453.742 310.31Z" fill="#F492B3"/>
<path d="M813.671 425.845C814.395 425.103 832.512 433.483 828.011 420.118C825.539 412.776 815.451 422.698 814.162 422.928C812.281 423.264 809.785 421.265 806.694 422.104C798.997 424.2 806.476 435.009 812.445 430.533C813.944 429.409 813.428 426.087 813.668 425.842L813.671 425.845Z" fill="#F492B3"/>
<path d="M772.963 419.488C771.535 421.511 774.328 426.565 777.392 427.159C791.171 429.833 788.978 411.092 779.739 414.984C779.245 415.193 773.197 419.154 772.963 419.488Z" fill="#F492B3"/>
<path d="M817.328 410.341C815.778 407.637 807.792 405.547 805.39 410.423C799.894 421.577 823.776 421.583 817.328 410.341Z" fill="#F492B3"/>
<path d="M787.398 407.564C784.18 412.367 795.19 420.529 798.572 415.414C799.387 414.178 799.481 406.468 799.154 406.135C798.578 405.55 788.165 406.419 787.398 407.564Z" fill="#F492B3"/>
<path d="M790.082 422.077C786.934 426.478 795.712 436.066 799.773 427.132C804.277 417.228 792.142 419.194 790.082 422.077Z" fill="#F492B3"/>
<path d="M246.598 264.215C244.484 266.278 229.48 253.07 223.659 253.703C219.54 254.151 204.918 262.195 202.324 265.436C199.358 269.143 199.771 273.704 201.933 277.856C203.18 280.252 213.975 294.095 215.973 286.924C218.642 281.054 222.531 264.33 229.122 263.101C234.339 262.128 237.581 267.498 241.715 269.751C247.657 272.989 253.438 273.349 258.458 279.994C256.116 272.42 251.842 265.427 249.847 257.71C249.119 254.899 246.768 245.907 250.535 248.466C251.269 248.966 257.169 260.445 259.825 263.534C260.89 264.769 267.587 272.286 269.013 270.79C269.823 269.942 266.043 263.818 265.425 261.895C260.708 247.276 257.299 230.955 257.165 215.612C259.061 215.304 259.01 217.929 259.386 219.28C263.605 234.368 267.159 249.045 277.147 262.041C277.887 263.004 280.833 267.089 282.2 265.536C283.223 264.376 275.807 239.181 274.669 235.604C273.723 232.63 266.659 218.135 267.708 216.93C269.477 214.898 271.051 219.319 271.664 220.204C274.266 223.938 277.472 229.426 279.383 233.536C282.549 240.341 284.008 250.153 287.693 255.478C294.048 264.657 291.982 255.469 293.353 251.023C296.089 242.14 306.492 226.34 312.574 218.929L321.77 210.364C317.778 216.097 313.911 222.018 309.917 227.745C305.161 234.559 299.28 238.869 299.353 249.133C299.371 251.843 302.565 260.959 304.615 256.953C305.743 254.748 306.195 250.402 307.872 247.092C312.11 238.736 318.57 225.337 323.462 217.947C324.384 216.554 325.128 214.619 327.035 214.295C326.371 217.881 325.367 221.751 324.121 225.177C321.133 233.387 308.276 254.366 311.861 261.623C312.128 262.162 313.414 263.234 313.845 262.913C314.949 257.455 318.804 253.385 321.148 248.497C325.237 239.977 327.691 230.743 331.667 222.184C331.697 225.295 331.348 230.086 330.678 233.024C330.011 235.937 317.681 268.276 325.07 268.146C325.925 268.131 335.164 260.502 339.341 258.736C344.488 256.559 351.349 254.478 356.884 253.876C358.337 253.718 362.859 252.582 362.644 255.014L341.661 263.673L334.964 270.79L341.552 270.139L373.193 260.935L337.597 278.701C334.615 282.247 344.712 281.487 346.171 281.315C354.536 280.333 361.464 273.525 369.235 274.073C359.25 282.926 349.125 288.595 336.317 292.526C332.835 293.595 327.542 292.454 333.202 296.851C340.354 302.406 350.982 304.686 357.372 311.519C345.425 308.675 334.254 302.324 322.134 299.983C314.576 298.523 324.806 307.197 326.544 308.681C344.749 324.227 354.755 322.067 375.607 328.179C376.499 328.439 384.718 331.828 382.419 333.867C379.69 336.283 320.217 316.749 313.168 311.552C309.808 310.858 311.943 313.648 312.759 314.593C317.463 320.041 329.086 326.877 335.78 329.76C341.157 332.077 357.315 335.553 360.59 337.898C362.926 339.569 362.171 342.901 363.447 343.155C370.387 341.965 403.338 342.928 406.159 339.109C407.257 337.622 404.925 336.123 404.194 335.175C399.341 328.869 387.175 315.853 380.997 310.983C372.386 304.199 360.16 297.975 349.465 295.749L367.485 288.102C377.943 281.345 388.652 274.091 395.361 263.316C396.235 261.913 402.847 248.975 402.207 248.463C399.82 246.546 373.836 246.54 368.637 244.46C361.57 245.88 355.258 245.971 348.149 247.812C344.418 248.778 331.621 255.723 331.006 255.026C330.366 254.303 336.241 239.759 336.969 236.67C337.845 232.951 339.52 225.01 339.52 221.518C339.52 211.684 333.911 200.569 333.623 190.645C332.286 189.185 326.183 195.954 325.037 197.19C319.383 203.28 313.377 209.407 307.894 215.585C305.309 218.499 292.128 236.634 290.769 236.607C289.022 236.57 274.803 210.655 270.52 208.189C267.081 201.732 265.094 194.412 261.758 187.949C261.096 186.671 261.5 184.497 259.146 185.402C255.71 186.723 244.032 207.79 242.57 212.257C239.449 221.791 239.968 235.11 241.454 245.041C241.961 248.427 247.302 263.528 246.589 264.221L246.598 264.215Z" fill="#19876E"/>
<path d="M163.51 216.915C164.007 216.312 163.228 207.993 163.519 205.721C163.825 203.335 163.064 203.598 166.151 203.765C165.129 212.878 170.492 208.532 171.271 209.083C171.872 209.507 176.224 220.24 175.399 222.172C177.316 222.254 179.406 215.979 180.647 216.921C183.34 218.965 181.132 230.625 188.232 215.864C189.1 214.062 187.398 212.251 191.208 212.987C186.619 231.918 192.576 221.994 199.612 223.378C201.035 223.659 200.91 227.642 203.14 229.341C210.043 234.599 223.75 224.922 228.809 219.562C244.308 203.147 246.261 184.9 256.886 167.379C259.837 162.509 270.853 154.035 259.422 156.764C243.813 160.492 227.265 176.556 214.96 186.044C213.634 187.065 213.285 188.588 211.002 188.001L221.411 158.306C221.654 154.502 226.501 131.203 225.497 130.194C222.348 127.038 215.142 140.107 212.33 141.373C207.747 142.969 185.763 164.756 183.983 164.351C182.166 163.936 172.73 134.05 169.533 130.112L157.607 111.805C153.312 115.245 156.773 120.261 156.922 124.285C157.914 151.128 144.465 179.687 154.016 206.021C154.759 208.071 161.614 219.21 163.51 216.915Z" fill="#19876E"/>
<path d="M97.8049 399.357C99.2001 401.586 107.86 403.152 109.321 398.775C112.634 379.968 111.96 360.252 113.413 341.072C112.691 336.586 101.793 335.672 100.407 341.341C99.9129 343.37 101.784 346.39 101.663 348.982C101.166 359.722 98.0809 372.045 97.5956 383.157C97.4743 385.892 97.0921 398.221 97.8049 399.36V399.357Z" fill="#19876E"/>
<path d="M18.4959 382.397C18.7264 382.702 24.9534 385.01 25.7117 385.022C35.4387 385.162 29.779 370.758 32.8545 364.61C31.0832 361.293 32.7453 341.556 31.6565 340.43C31.3835 340.148 25.9239 340.327 24.6591 340.696C20.8071 341.82 20.2612 349.312 19.7971 352.935C18.8235 360.545 19.8184 367.89 19.9154 375.264C19.9427 377.242 18.1683 381.964 18.4959 382.397Z" fill="#19876E"/>
<path d="M425.956 289.195C424.967 290.325 424.949 305.325 424.576 308.184C424.23 310.828 421.115 313.678 422.556 315.529C423.909 317.267 431.306 318.33 433.9 318.839C435.68 319.187 446.614 320.604 447.13 320.187C447.469 319.911 450.484 312.582 450.515 312.149C450.867 306.837 437.339 300.849 433.984 297.611C432.735 296.403 427.824 287.06 425.956 289.195Z" fill="#19876E"/>
<path d="M323.404 440.021C326.868 442.023 332.488 440.997 332.261 435.903C331.897 427.807 327.772 417.295 326.092 409.075C325.606 406.704 325.5 397.355 325.109 396.885C323.474 394.911 315.907 394.871 314.417 396.903C312.892 398.984 322.867 434.258 323.404 440.021Z" fill="#19876E"/>
<path d="M245.278 414.03C244.65 413.34 230.465 421.98 229.746 424.024C233.279 430.742 227.013 443.08 232.151 447.481C246.549 459.81 243.868 420.911 245.278 414.03Z" fill="#19876E"/>
<path d="M233.249 361.633C229.455 358.949 221.748 364.667 222.864 371.254C224.402 380.331 236.704 373.405 235.87 367.699C235.791 367.157 233.519 361.823 233.249 361.633Z" fill="#19876E"/>
<path d="M231.83 360.267C228.165 360.267 225.194 357.307 225.194 353.655C225.194 350.004 228.165 347.044 231.83 347.044C235.496 347.044 238.467 350.004 238.467 353.655C238.467 357.307 235.496 360.267 231.83 360.267Z" fill="#19876E"/>
<path d="M304.797 286.721C302.043 290.634 307.608 297.627 312.892 296.854C320.76 295.706 317.854 286.884 312.582 284.598C311.597 284.171 305.03 286.39 304.797 286.721Z" fill="#19876E"/>
<path d="M244.29 349.958C241.123 353.11 242.258 359.104 247.299 360.112C254.408 361.533 255.907 360.04 254.481 352.956C253.471 347.935 247.456 346.805 244.29 349.958Z" fill="#19876E"/>
<path d="M308.415 277.193C311.09 273.319 306.999 265.845 300.332 267.062C287.511 269.403 303.835 283.819 308.415 277.193Z" fill="#19876E"/>
<path d="M430.675 256.88C432.929 259.167 437.833 262.298 440.272 258.773C440.766 258.058 440.769 250.696 440.272 249.954C438.188 246.849 428.221 248.785 427.302 253.125C426.85 255.269 429.48 255.666 430.675 256.88Z" fill="#19876E"/>
<path d="M93.4545 255.13C91.2828 253.573 81.7862 257.483 88.5045 266.035C91.765 270.188 97.4945 267.704 97.5673 263.588C97.5825 262.65 93.8367 255.402 93.4545 255.13Z" fill="#19876E"/>
<path d="M426.48 259.173C424.691 258.746 414.618 261.759 415.404 264.863C415.507 265.275 421.442 269.873 422.058 270.173C427.845 272.995 432.374 260.578 426.48 259.173Z" fill="#19876E"/>
<path d="M91.3192 290.182C93.1087 291.936 99.4569 292.539 101.607 291.206C103.197 290.219 101.771 282.995 101.468 282.696C99.4903 280.721 83.7699 282.79 91.3192 290.182Z" fill="#19876E"/>
<path d="M257.472 369.032C264.86 376.373 275.297 362.547 261.133 360.697C254.439 359.822 254.317 365.897 257.472 369.032Z" fill="#19876E"/>
<path d="M423.308 234.005C420.527 236.525 429.929 251.401 434.567 240.516C438.137 232.139 424.397 233.021 423.308 234.005Z" fill="#19876E"/>
<path d="M417.191 228.85C410.339 226.694 403.378 234.402 411.434 238.636C418.762 242.488 422.271 230.449 417.191 228.85Z" fill="#19876E"/>
<path d="M221.354 363.901C223.959 360.07 219.401 349.034 213.031 356.278C206.804 363.359 218.345 368.329 221.354 363.901Z" fill="#19876E"/>
<path d="M119.697 287.541C122.933 284.51 118.663 277.783 113.073 278.88C102.263 281 114.098 292.79 119.697 287.541Z" fill="#19876E"/>
<path d="M282.388 269.658C276.55 273.716 287.117 284.01 292.194 277.441C295.291 273.434 286.125 267.062 282.388 269.658Z" fill="#19876E"/>
<path d="M406.162 233.999C403.623 231.255 388.297 238.899 399.604 243.89C406.216 246.81 407.542 235.492 406.162 233.999Z" fill="#19876E"/>
<path d="M297.108 281.542C287.038 278.522 288.843 290.93 296.286 291.621C300.848 292.045 302.91 283.28 297.108 281.542Z" fill="#19876E"/>
<path d="M116.243 267.041C113.777 270.678 117.241 279.84 123.422 274.852C130.708 268.976 119.873 261.683 116.243 267.041Z" fill="#19876E"/>
<path d="M104.671 268.328C93.9611 264.561 93.2968 278.565 102.887 276.857C109.7 275.642 108.147 269.552 104.671 268.328Z" fill="#19876E"/>
<path d="M287.484 298.402C287.223 298.562 287.098 303.329 288.724 304.38C290.022 305.216 298.982 305.34 299.358 304.965C299.637 304.686 299.613 297.363 299.352 297.069C298.955 296.624 287.993 298.09 287.484 298.402Z" fill="#19876E"/>
<path d="M104.353 264.055C109.103 267.419 118.175 259.645 112.185 255.593C105.976 251.392 99.8249 260.847 104.353 264.055Z" fill="#19876E"/>
<path d="M250.554 374.595C251.733 373.444 249.134 360.131 242.558 364.658C236.635 368.738 246.726 378.329 250.554 374.595Z" fill="#19876E"/>
<path d="M416.711 243.203C414.53 241.01 397.399 247.549 408.428 250.85C414.949 252.803 418.88 245.383 416.711 243.203Z" fill="#19876E"/>
<path d="M320.839 275C312.625 272.511 309.762 278.816 316.523 281.969C322.823 284.907 327.594 277.047 320.839 275Z" fill="#19876E"/>
<path d="M88.8055 270.924C81.3684 268.492 80.5798 278.31 86.6157 279.864C92.336 281.336 93.8404 272.568 88.8055 270.924Z" fill="#19876E"/>
<path d="M285.996 284.905L286.405 293.008L277.106 293.476L276.697 285.372L285.996 284.905Z" fill="#19876E"/>
<path d="M92.7546 163.951C93.1883 164.563 95.0537 164.778 95.5663 165.653C96.6915 167.579 96.0152 170.586 96.2791 170.923C98.0322 173.143 99.7671 159.044 98.7571 157.918C96.5945 155.501 87.1798 156.083 92.7546 163.951Z" fill="#19876E"/>
<path d="M404.855 256.353C401.989 260.526 412.192 265.081 414.079 262.916C414.34 262.619 414.34 255.317 414.079 255.02C413.563 254.439 405.222 255.82 404.855 256.353Z" fill="#19876E"/>
<path d="M64.6252 152.533L64.9376 158.802L77.7979 170.917L71.7711 160.514L64.6252 152.533Z" fill="#19876E"/>
<path d="M72.5295 174.854C72.9905 174.451 66.4694 165.807 64.6313 165.668C62.86 169.242 70.3214 176.792 72.5295 174.854Z" fill="#19876E"/>
<path d="M420.682 251.074C424.47 254.848 426.93 244.226 422.671 245.838C420.955 246.486 419.884 250.281 420.682 251.074Z" fill="#19876E"/>
</svg>
