<svg xmlns="http://www.w3.org/2000/svg" width="327" height="310" viewBox="0 0 327 310" fill="none">
  <path d="M135.929 1.5C165.638 1.698 197.279 5.45 228.404 10.564C249.964 14.107 272.747 17.212 292.295 26.837C311.396 35.753 320.373 55.115 323.09 74.766C325.318 91.967 324.223 110.07 324.483 127.672C324.348 153.231 325.024 178.78 323.085 204.274C320.382 231.416 316.486 259.92 301.307 282.329C286.015 304.605 256.581 309.331 231.037 308.258C200.979 306.74 104.669 300.225 79.7155 298.592C19.9095 294.678 10.3605 274.727 10.2145 219.693C9.84347 197.144 8.39347 173.966 5.60347 151.837C1.69147 121.773 -1.37853 90.624 5.93947 61.075C10.6975 42.62 20.7935 24.313 38.2595 15.62C54.9935 7.135 76.6675 5.29 97.1945 3.407C109.933 2.36 123.151 1.508 135.759 1.5H135.928H135.929Z" fill="#D9D9D9" stroke="white" stroke-width="3"/>
</svg>