<svg xmlns="http://www.w3.org/2000/svg" width="216" height="298" viewBox="0 0 216 298" fill="none">
<path d="M125.225 296.927C112.189 297.64 99.882 295.087 85.415 292.726C62.393 289.013 32.127 285.048 14.209 267.664C1.39001 254.39 0.138014 232.856 0.0350139 215.054C-0.0379861 192.575 0.0510139 169.829 0.0180139 145.704C-0.0889861 121.176 0.162014 96.4777 4.12101 73.1187C8.66501 42.4907 16.234 12.1227 52.552 9.34574C74.653 7.64874 145.854 -2.68426 164.066 0.662741C199.932 7.25474 208.287 38.8007 208.704 71.8607C208.973 101.032 209.069 131.073 212.286 159.823C215.183 185.796 216.807 210.842 212.963 237.216C210.569 253.658 206.459 272.563 191.023 281.473C180.84 287.545 168.08 290.104 154.953 292.791C145.274 294.708 135.197 296.474 125.441 296.917L125.225 296.927Z" fill="#D9D9D9"/>
</svg>