<svg xmlns="http://www.w3.org/2000/svg" width="501" height="370" viewBox="125 92 501 370" fill="none">
<path d="M0.00402058 230.321C-0.129654 180.916 2.49038 126.899 7.28828 77.3458C8.73814 54.4505 13.5278 31.3577 35.6603 21.9156C43.3682 18.3466 51.8617 17.5588 60.5423 16.3204C68.0137 15.3618 76.6162 14.1461 84.8013 13.2183C210.943 -1.69142 340.83 -3.85753 468.37 6.05966C498.9 8.12909 551.681 13.8642 571.164 16.9499C590.239 18.8362 605.636 26.5503 613.147 47.0141C616.567 56.2113 617.153 64.1599 618.358 75.8482C620.079 93.5906 622.115 119.423 623.464 143.415C626.391 196.393 626.699 240.524 624.832 293.352C623.734 322.941 621.502 354.918 618.747 383.976C617.237 407.814 612.406 431.485 588.799 440.701C582.854 443.173 576.363 444.144 569.881 445.031C554.934 447.129 531.082 450.208 499.994 453.127C475.879 455.417 449.448 457.41 425.816 458.828C315.008 465.283 199.951 461.73 90.3642 449.573C73.0852 447.25 56.5856 446.121 40.6433 442.247C19.136 435.953 9.50523 414.539 8.16437 391.569C2.98189 339.29 -0.107033 282.955 0.00402058 230.683V230.323V230.321Z" fill="#1D1D1B"/>
</svg>